<svg width="24" height="32" viewBox="0 0 24 32" fill="none" xmlns="http://www.w3.org/2000/svg">
<path d="M20.0454 16.9623C20.06 15.8045 20.3603 14.6693 20.9185 13.6623C21.4766 12.6553 22.2745 11.8093 23.2378 11.2029C22.6258 10.308 21.8185 9.57149 20.8799 9.05195C19.9414 8.5324 18.8975 8.2441 17.8311 8.20993C15.5563 7.96544 13.3509 9.60375 12.1917 9.60375C11.0101 9.60375 9.22533 8.23421 7.30342 8.2747C6.06028 8.31582 4.84874 8.68598 3.78685 9.3491C2.72496 10.0122 1.84893 10.9457 1.24411 12.0586C-1.37581 16.7032 0.578418 23.5293 3.08808 27.2836C4.34372 29.122 5.81121 31.1756 7.73138 31.1028C9.61038 31.023 10.3122 29.8759 12.5803 29.8759C14.8273 29.8759 15.4857 31.1028 17.4449 31.0565C19.4611 31.023 20.7315 29.2099 21.9431 27.3541C22.8452 26.0441 23.5394 24.5964 24 23.0644C22.8286 22.5571 21.829 21.7079 21.1257 20.6228C20.4225 19.5377 20.0468 18.2646 20.0454 16.9623Z" fill="white"/>
<path d="M16.3453 5.73739C17.4446 4.38606 17.9862 2.64914 17.8551 0.895508C16.1755 1.07614 14.6241 1.89809 13.5099 3.19758C12.9651 3.83241 12.5479 4.57096 12.282 5.371C12.0162 6.17105 11.9069 7.0169 11.9605 7.86021C12.8006 7.86906 13.6317 7.68262 14.3912 7.31491C15.1507 6.9472 15.8188 6.40782 16.3453 5.73739Z" fill="white"/>
</svg>
