<svg width="20" height="20" viewBox="0 0 20 20" fill="none" xmlns="http://www.w3.org/2000/svg">
<g id="ic_boon_white">
<path id="Vector" d="M16.3408 5.55538C15.9511 5.19865 15.4356 4.99997 14.9 5H5.1L4.9768 5.0034C4.44207 5.0339 3.93957 5.26162 3.5721 5.63995C3.20463 6.01829 2.99997 6.51864 3 7.03864V8.27405L3.0049 8.37395C3.0441 8.7708 3.315 9.07116 3.6181 9.21658L3.7161 9.26755C3.93301 9.3926 4.11109 9.57224 4.23149 9.78746C4.3519 10.0027 4.41016 10.2455 4.40012 10.4902C4.39008 10.7349 4.31211 10.9724 4.17446 11.1777C4.0368 11.3829 3.84457 11.5482 3.6181 11.6562L3.5432 11.6956C3.2464 11.8668 3 12.1876 3 12.5994V13.8341L3.0035 13.9537C3.03492 14.4728 3.2695 14.9606 3.65922 15.3174C4.04894 15.6741 4.56435 15.8728 5.1 15.8727H14.9L15.0232 15.8693C15.5579 15.8388 16.0604 15.6111 16.4279 15.2328C16.7954 14.8544 17 14.3541 17 13.8341V12.5994L16.9951 12.4988C16.9559 12.1019 16.685 11.8016 16.3819 11.6562L16.2839 11.6052C16.067 11.4801 15.8889 11.3005 15.7685 11.0853C15.6481 10.8701 15.5898 10.6273 15.5999 10.3825C15.6099 10.1378 15.6879 9.90029 15.8255 9.69505C15.9632 9.48981 16.1554 9.3245 16.3819 9.21658L16.4568 9.17717C16.6206 9.08552 16.7569 8.95391 16.8522 8.79538C16.9475 8.63685 16.9984 8.45691 17 8.27337V7.03864L16.9965 6.91904C16.9651 6.39994 16.7305 5.91212 16.3408 5.55538Z" fill="white"/>
<rect id="Rectangle 29" x="7" y="8.84766" width="6" height="0.961752" fill="#121212"/>
<rect id="Rectangle 30" x="7" y="11.7324" width="4" height="0.961752" fill="#121212"/>
</g>
</svg>
