<svg width="32" height="32" viewBox="0 0 32 32" fill="none" xmlns="http://www.w3.org/2000/svg">
<path d="M25.511 14.8661C26.8274 13.1907 27.0668 10.9169 26.3487 9.00215L27.3061 8.04478C27.7505 7.60043 28.0001 6.99777 28.0001 6.36938C28.0001 5.74098 27.7505 5.13832 27.3061 4.69397C26.8618 4.24963 26.2591 4 25.6307 4C25.0023 4 24.3997 4.24963 23.9553 4.69397L22.9979 5.65135C22.0256 5.30634 20.9842 5.20232 19.9628 5.34823C18.9415 5.49413 17.9708 5.8856 17.134 6.48905" stroke="currentColor" stroke-linecap="round" stroke-linejoin="round"/>
<path d="M15.0996 6.13018C15.3233 5.91091 15.6241 5.78809 15.9373 5.78809C16.2506 5.78809 16.5513 5.91091 16.775 6.13018L25.87 15.2252C26.0893 15.4489 26.2121 15.7497 26.2121 16.0629C26.2121 16.3762 26.0893 16.6769 25.87 16.9006L23.9553 18.8154C23.7316 19.0346 23.4308 19.1574 23.1176 19.1574C22.8044 19.1574 22.5036 19.0346 22.2799 18.8154L13.1849 9.72032C12.9656 9.49662 12.8428 9.19586 12.8428 8.88262C12.8428 8.56938 12.9656 8.26862 13.1849 8.04492L15.0996 6.13018Z" stroke="currentColor" stroke-linecap="round" stroke-linejoin="round"/>
<path d="M13.5438 10.0791L4.80778 18.8151C3.73074 19.8922 3.73074 21.8069 4.80778 22.884L9.11596 27.1921C10.193 28.2692 12.1077 28.2692 13.1848 27.1921L21.9208 18.4561M6.36351 17.2594L8.75694 19.6528M9.95366 13.6692L12.3471 16.0627" stroke="currentColor" stroke-linecap="round" stroke-linejoin="round"/>
</svg>
