<svg width="32" height="32" viewBox="0 0 32 32" fill="none" xmlns="http://www.w3.org/2000/svg">
<path d="M25.3333 14.6665H6.66667M25.3333 14.6665C26.8061 14.6665 28 15.8604 28 17.3332V21.3332C28 22.8059 26.8061 23.9998 25.3333 23.9998H6.66667C5.19391 23.9998 4 22.8059 4 21.3332V17.3332C4 15.8604 5.19391 14.6665 6.66667 14.6665M25.3333 14.6665L24.7167 7.88976C24.6594 7.19843 24.0816 6.6665 23.3879 6.6665H8.61206C7.91836 6.6665 7.34055 7.19843 7.28328 7.88976L6.66667 14.6665M5.33333 23.6431V25.3332C5.33333 26.0696 5.93029 26.6665 6.66667 26.6665H8C8.73638 26.6665 9.33333 26.0696 9.33333 25.3332V23.9998M22.6667 23.9998V25.3332C22.6667 26.0696 23.2636 26.6665 24 26.6665H25.3333C26.0697 26.6665 26.6667 26.0696 26.6667 25.3332V23.6431M25.3333 19.9998C25.3333 20.7362 24.7364 21.3332 24 21.3332C23.2636 21.3332 22.6667 20.7362 22.6667 19.9998C22.6667 19.2635 23.2636 18.6665 24 18.6665C24.7364 18.6665 25.3333 19.2635 25.3333 19.9998ZM9.33333 19.9998C9.33333 20.7362 8.73638 21.3332 8 21.3332C7.26362 21.3332 6.66667 20.7362 6.66667 19.9998C6.66667 19.2635 7.26362 18.6665 8 18.6665C8.73638 18.6665 9.33333 19.2635 9.33333 19.9998Z" stroke="white"/>
</svg>
