<svg width="40" height="40" viewBox="0 0 40 40" fill="none" xmlns="http://www.w3.org/2000/svg">
<path d="M14.6775 33.9576C13.531 33.9576 12.6016 33.028 12.6016 31.8816C12.6016 30.7353 13.531 29.8057 14.6775 29.8057C15.8241 29.8057 16.7535 30.7353 16.7535 31.8816C16.7535 33.028 15.8241 33.9576 14.6775 33.9576Z" fill="#121212"/>
<path d="M31.1404 34.0001C29.9939 34.0001 29.0645 33.0705 29.0645 31.9241C29.0645 30.7778 29.9939 29.8481 31.1404 29.8481C32.287 29.8481 33.2164 30.7778 33.2164 31.9241C33.2164 33.0705 32.287 34.0001 31.1404 34.0001Z" fill="#121212"/>
<path d="M5 6L7.90994 7.98054C8.67698 8.50259 9.21825 9.29535 9.42521 10.1998L12.639 24.2452C12.7225 24.8059 13.0023 25.317 13.4268 25.6843C13.8513 26.0516 14.3919 26.2503 14.9489 26.2439H29.5016C30.0054 26.2708 30.5039 26.1289 30.9208 25.8402C31.338 25.5515 31.6508 25.1317 31.8115 24.645L34.8838 15.2393C34.9983 14.8857 35.0288 14.5094 34.9725 14.1415C34.9163 13.7736 34.775 13.4245 34.5604 13.123C34.3368 12.8025 34.0376 12.5441 33.6907 12.3716C33.3437 12.1991 32.9596 12.1179 32.5738 12.1354H11.0424" stroke="#121212" stroke-width="2" stroke-linecap="round" stroke-linejoin="round"/>
</svg>
