<svg width="20" height="20" viewBox="0 0 20 20" fill="none" xmlns="http://www.w3.org/2000/svg">
<path d="M8.75821 5.08603C8.94779 4.89255 9.20783 4.78333 9.47944 4.78312L15.5966 4.7785C16.174 4.77806 16.6338 5.25926 16.6039 5.83286L16.3129 11.4228C16.3002 11.666 16.199 11.8964 16.028 12.0708L9.94238 18.2819C9.5538 18.6785 8.9156 18.6867 8.51692 18.3003L2.72211 12.683C2.32344 12.2966 2.31526 11.6618 2.70385 11.2652L8.75821 5.08603Z" fill="white"/>
<path d="M7.05273 14.0658L12.1065 9.03906" stroke="#121212" stroke-width="1.00535" stroke-linecap="round" stroke-linejoin="round"/>
<path d="M11.6021 14.0678C11.8812 14.0678 12.1074 13.8428 12.1074 13.5652C12.1074 13.2876 11.8812 13.0625 11.6021 13.0625C11.3229 13.0625 11.0967 13.2876 11.0967 13.5652C11.0967 13.8428 11.3229 14.0678 11.6021 14.0678Z" stroke="#121212" stroke-width="1.00535" stroke-linecap="round" stroke-linejoin="round"/>
<path d="M7.55811 10.0444C7.83722 10.0444 8.06348 9.81935 8.06348 9.54174C8.06348 9.26412 7.83722 9.03906 7.55811 9.03906C7.279 9.03906 7.05273 9.26412 7.05273 9.54174C7.05273 9.81935 7.279 10.0444 7.55811 10.0444Z" stroke="#121212" stroke-width="1.00535" stroke-linecap="round" stroke-linejoin="round"/>
</svg>
