<svg width="16" height="16" viewBox="0 0 16 16" fill="none" xmlns="http://www.w3.org/2000/svg">
<path fill-rule="evenodd" clip-rule="evenodd" d="M10 4C10 4.55228 10.4477 5 11 5H13C13.5523 5 14 4.55228 14 4V3.26953C14.5973 3.61546 15 4.26007 15 5V12C15 13.1046 14.1046 14 13 14H3C1.89543 14 1 13.1046 1 12V5C1 4.26007 1.40267 3.61546 2 3.26953V4C2 4.55228 2.44772 5 3 5H5C5.55228 5 6 4.55228 6 4V3H10V4ZM10.8906 6.54492C10.6391 6.3294 10.2606 6.35811 10.0449 6.60938L7.46582 9.61816L6.42383 8.57617L6.33008 8.49902C6.0972 8.34526 5.7812 8.37117 5.57617 8.57617C5.37115 8.7812 5.34526 9.09719 5.49902 9.33008L5.57617 9.42383L7.07617 10.9238C7.19435 11.042 7.35644 11.106 7.52344 11.0996C7.69015 11.0931 7.84641 11.0172 7.95508 10.8906L10.9551 7.39062C11.1706 7.13914 11.1419 6.76061 10.8906 6.54492Z" fill="#0A8800"/>
<path d="M3 1.5C3 1.22386 3.22386 1 3.5 1H4.5C4.77614 1 5 1.22386 5 1.5V3.5C5 3.77614 4.77614 4 4.5 4H3.5C3.22386 4 3 3.77614 3 3.5V1.5Z" fill="#0A8800"/>
<path d="M11 1.5C11 1.22386 11.2239 1 11.5 1H12.5C12.7761 1 13 1.22386 13 1.5V3.5C13 3.77614 12.7761 4 12.5 4H11.5C11.2239 4 11 3.77614 11 3.5V1.5Z" fill="#0A8800"/>
</svg>
