<svg width="32" height="32" viewBox="0 0 32 32" fill="none" xmlns="http://www.w3.org/2000/svg">
<path d="M22.9771 20.6557L23.0016 11.1777C23.0039 10.9474 23.0762 10.7241 23.2096 10.5357C23.3429 10.3473 23.5314 10.2024 23.7511 10.1193C23.97 10.0344 24.2108 10.0147 24.4432 10.0628C24.6756 10.1108 24.8893 10.2244 25.0571 10.3893L26.8937 12.2098C27.0058 12.3196 27.0948 12.4494 27.1555 12.5919C27.2163 12.7345 27.2478 12.8868 27.248 13.0402L27.1517 20.7284M22.9876 16.535L27.23 16.6088M8.00159 22.321V26.2073H21.8643M8.00159 22.321H4V11.2174C4 9.55182 5.14331 7.60868 6.85828 6.22073C8.57325 4.83277 12.0032 4 12.0032 4M8.00159 22.321V11.2174M12.0032 4H18.8631M12.0032 4C12.0032 5.83971 13.5388 7.33109 15.4331 7.33109C17.3274 7.33109 18.8631 5.83971 18.8631 4M18.8631 4C18.8631 4 22.293 5.38796 24.008 6.77591C25.7229 8.16387 26.8662 10.5234 26.8662 12.1889M22.0446 26.7552C22.0448 27.0632 22.1704 27.3604 22.394 27.5821C22.6176 27.8037 22.921 27.9317 23.238 27.9381L26.7847 27.9999C27.1018 28.0045 27.4058 27.887 27.6306 27.6732C27.8553 27.4594 27.9824 27.1665 27.9841 26.8586L28 20.7432L22.0605 20.6398L22.0446 26.7552Z" stroke="currentColor" stroke-linecap="round" stroke-linejoin="round"/>
</svg>
