<svg width="20" height="20" viewBox="0 0 20 20" fill="none" xmlns="http://www.w3.org/2000/svg">
<path d="M17 10C17 13.866 13.866 17 10 17C6.13401 17 3 13.866 3 10C3 6.13401 6.13401 3 10 3C13.866 3 17 6.13401 17 10Z" fill="white"/>
<path d="M10.8457 12.002H12.9995V9.71631" stroke="#121212" stroke-width="0.538462" stroke-linecap="round" stroke-linejoin="round"/>
<path d="M13 12L9.95769 8.77143C9.90737 8.71908 9.8397 8.68976 9.76923 8.68976C9.69876 8.68976 9.6311 8.71908 9.58077 8.77143L8.34231 10.0857C8.29198 10.1381 8.22432 10.1674 8.15385 10.1674C8.08337 10.1674 8.01571 10.1381 7.96538 10.0857L6 8" stroke="#121212" stroke-width="0.538462" stroke-linecap="round" stroke-linejoin="round"/>
</svg>
