<svg width="20" height="20" viewBox="0 0 20 20" fill="none" xmlns="http://www.w3.org/2000/svg">
<g id="ic_hourglass_&#8;white">
<path id="Vector" d="M6.25 5.2H5V4H15V5.2H13.75V6.4C13.75 7.369 13.24 8.149 12.5975 8.7862C12.1581 9.2218 11.6237 9.6232 11.0819 10C11.6237 10.3768 12.1581 10.7782 12.5975 11.2138C13.24 11.851 13.75 12.631 13.75 13.6V14.8H15V16H5V14.8H6.25V13.6C6.25 12.631 6.76 11.851 7.4025 11.2138C7.84187 10.7782 8.37625 10.3768 8.91813 10C8.37625 9.6232 7.84187 9.2218 7.4025 8.7862C6.76 8.149 6.25 7.369 6.25 6.4V5.2ZM7.5 5.2V6.4C7.5 6.811 7.6625 7.201 7.98187 7.6H12.0181C12.3369 7.201 12.5 6.811 12.5 6.4V5.2H7.5ZM10 10.7332C9.34688 11.176 8.755 11.5978 8.30063 12.0484C8.18768 12.1598 8.08126 12.2772 7.98187 12.4H12.0181C11.9187 12.2772 11.8123 12.1598 11.6994 12.0484C11.245 11.5978 10.6531 11.176 10 10.7332Z" fill="white"/>
</g>
</svg>
