<svg width="32" height="32" viewBox="0 0 32 32" fill="none" xmlns="http://www.w3.org/2000/svg">
<path d="M23.2001 15.0769C25.8511 15.0769 28.0001 12.5973 28.0001 9.53847C28.0001 6.47966 25.8511 4 23.2001 4C20.5492 4 18.4001 6.47966 18.4001 9.53847C18.4001 12.5973 20.5492 15.0769 23.2001 15.0769Z" stroke="currentColor" stroke-linecap="round" stroke-linejoin="round"/>
<path d="M23.2002 15.0771V28.0002" stroke="currentColor" stroke-linecap="round" stroke-linejoin="round"/>
<path d="M9 4V28" stroke="currentColor" stroke-linecap="round" stroke-linejoin="round"/>
<path d="M14 4V8.61539C14 9.22148 13.8707 9.82165 13.6194 10.3816C13.3681 10.9416 12.9998 11.4504 12.5355 11.879C12.0712 12.3075 11.52 12.6475 10.9134 12.8795C10.3068 13.1114 9.6566 13.2308 9 13.2308C7.67392 13.2308 6.40214 12.7445 5.46446 11.879C4.52678 11.0134 4 9.83946 4 8.61539V4" stroke="currentColor" stroke-linecap="round" stroke-linejoin="round"/>
</svg>
