<svg width="32" height="32" viewBox="0 0 32 32" fill="none" xmlns="http://www.w3.org/2000/svg">
<path d="M28 14.8892C28.0018 14.633 27.9501 14.3792 27.8484 14.144C27.7467 13.9088 27.5971 13.6973 27.4092 13.5231L21.7046 8.26153L16 3L4.59081 13.5231C4.40292 13.6973 4.25336 13.9088 4.15165 14.144C4.04994 14.3792 3.99831 14.633 4.00004 14.8892V25.1538C4.00004 25.6434 4.19455 26.1131 4.54077 26.4592C4.88699 26.8054 5.35657 27 5.84619 27H26.1538C26.6434 27 27.1131 26.8054 27.4592 26.4592C27.8056 26.1131 28 25.6434 28 25.1538V14.8892Z" stroke="currentColor" stroke-linecap="round" stroke-linejoin="round"/>
<path d="M21.5713 21H16.4287C16.1919 21 16 21.1919 16 21.4287V26.5713C16 26.8081 16.1919 27 16.4287 27H21.5713C21.8081 27 22 26.8081 22 26.5713V21.4287C22 21.1919 21.8081 21 21.5713 21Z" stroke="currentColor" stroke-linecap="round" stroke-linejoin="round"/>
<path d="M18.5713 15H13.4287C13.1919 15 13 15.1919 13 15.4287V20.5713C13 20.8081 13.1919 21 13.4287 21H18.5713C18.8081 21 19 20.8081 19 20.5713V15.4287C19 15.1919 18.8081 15 18.5713 15Z" stroke="currentColor" stroke-linecap="round" stroke-linejoin="round"/>
<path d="M15.5713 21H10.4287C10.1919 21 10 21.1919 10 21.4287V26.5713C10 26.8081 10.1919 27 10.4287 27H15.5713C15.8081 27 16 26.8081 16 26.5713V21.4287C16 21.1919 15.8081 21 15.5713 21Z" stroke="currentColor" stroke-linecap="round" stroke-linejoin="round"/>
</svg>
