<svg width="20" height="20" viewBox="0 0 20 20" fill="none" xmlns="http://www.w3.org/2000/svg">
<rect y="3" width="20" height="14" rx="2" fill="#0A8800"/>
<path d="M17.5161 12.0239C17.1105 12.0239 16.8166 11.9465 16.6343 11.7915C16.4543 11.6343 16.3643 11.3779 16.3643 11.0225V8.87256H15.7832V8.28809H16.3643V7.35156H17.123V8.28809H17.9194V8.87256H17.123V10.8413C17.123 11.0418 17.1629 11.1865 17.2427 11.2754C17.3224 11.362 17.4546 11.4053 17.6392 11.4053C17.6938 11.4053 17.7406 11.4041 17.7793 11.4019C17.8203 11.3996 17.867 11.3962 17.9194 11.3916V11.9863C17.8602 11.9954 17.7964 12.0034 17.728 12.0103C17.6597 12.0194 17.589 12.0239 17.5161 12.0239Z" fill="white"/>
<path d="M11.918 12V8.28809H12.6597V8.84863H12.7178C12.8089 8.65039 12.9434 8.49544 13.1211 8.38379C13.2988 8.27214 13.5233 8.21631 13.7944 8.21631C14.2114 8.21631 14.5304 8.33594 14.7515 8.5752C14.9725 8.81445 15.083 9.15511 15.083 9.59717V12H14.3379V9.77148C14.3379 9.46159 14.2729 9.23145 14.1431 9.08105C14.0155 8.92839 13.8149 8.85205 13.5415 8.85205C13.3615 8.85205 13.2054 8.89193 13.0732 8.97168C12.9411 9.04915 12.8385 9.16081 12.7656 9.30664C12.695 9.4502 12.6597 9.62223 12.6597 9.82275V12H11.918Z" fill="white"/>
<path d="M8.97852 12.0615C8.74382 12.0615 8.53304 12.0171 8.34619 11.9282C8.16162 11.8371 8.01579 11.7083 7.90869 11.542C7.8016 11.3757 7.74805 11.1808 7.74805 10.9575V10.9507C7.74805 10.7274 7.8016 10.5371 7.90869 10.3799C8.01807 10.2227 8.17529 10.0996 8.38037 10.0107C8.58773 9.9196 8.83838 9.86491 9.13232 9.84668L10.5029 9.76465V10.2876L9.23486 10.3696C8.97965 10.3856 8.79167 10.4403 8.6709 10.5337C8.55013 10.6248 8.48975 10.7536 8.48975 10.9199V10.9268C8.48975 11.0954 8.55469 11.2287 8.68457 11.3267C8.81445 11.4224 8.97852 11.4702 9.17676 11.4702C9.36133 11.4702 9.52539 11.4338 9.66895 11.3608C9.81478 11.2856 9.92871 11.1854 10.0107 11.0601C10.0928 10.9325 10.1338 10.7889 10.1338 10.6294V9.46045C10.1338 9.25537 10.07 9.09928 9.94238 8.99219C9.81706 8.88281 9.63021 8.82812 9.38184 8.82812C9.17448 8.82812 9.00472 8.86458 8.87256 8.9375C8.74268 9.01042 8.65609 9.11296 8.61279 9.24512L8.60596 9.25537H7.8916L7.89502 9.23145C7.92464 9.02637 8.00553 8.84863 8.1377 8.69824C8.27214 8.54557 8.44759 8.42708 8.66406 8.34277C8.88281 8.25846 9.13232 8.21631 9.4126 8.21631C9.72477 8.21631 9.98909 8.26644 10.2056 8.3667C10.4243 8.46468 10.5895 8.6071 10.7012 8.79395C10.8151 8.97852 10.8721 9.20068 10.8721 9.46045V12H10.1338V11.4736H10.0791C10.0062 11.599 9.91504 11.7061 9.80566 11.7949C9.69629 11.8815 9.5721 11.9476 9.43311 11.9932C9.29411 12.0387 9.14258 12.0615 8.97852 12.0615Z" fill="white"/>
<path d="M6.11328 12V6.83203H6.85498V12H6.11328Z" fill="white"/>
<path d="M2.00195 10.3149V9.67236H3.34863C3.68132 9.67236 3.9388 9.58691 4.12109 9.41602C4.30566 9.24284 4.39795 9.00358 4.39795 8.69824V8.69141C4.39795 8.38151 4.30566 8.14111 4.12109 7.97021C3.9388 7.79932 3.68132 7.71387 3.34863 7.71387H2.00195V7.06787H3.54004C3.86361 7.06787 4.1473 7.13623 4.39111 7.27295C4.63721 7.40739 4.82975 7.59652 4.96875 7.84033C5.10775 8.08187 5.17725 8.36328 5.17725 8.68457V8.69141C5.17725 9.0127 5.10775 9.29639 4.96875 9.54248C4.82975 9.7863 4.63721 9.97656 4.39111 10.1133C4.1473 10.2477 3.86361 10.3149 3.54004 10.3149H2.00195ZM1.61914 12V7.06787H2.38477V12H1.61914Z" fill="white"/>
</svg>
