<svg width="16" height="16" viewBox="0 0 16 16" fill="none" xmlns="http://www.w3.org/2000/svg">
<path d="M8.00167 8.23296C7.87306 8.23296 7.7688 8.12867 7.7688 8.00002C7.7688 7.87138 7.87306 7.76709 8.00167 7.76709" stroke="white" stroke-linecap="round" stroke-linejoin="round"/>
<path d="M8.00171 8.23296C8.13032 8.23296 8.23458 8.12867 8.23458 8.00002C8.23458 7.87138 8.13032 7.76709 8.00171 7.76709" stroke="white" stroke-linecap="round" stroke-linejoin="round"/>
<path d="M5.44014 8.23296C5.31153 8.23296 5.20728 8.12867 5.20728 8.00002C5.20728 7.87138 5.31153 7.76709 5.44014 7.76709" stroke="white" stroke-linecap="round" stroke-linejoin="round"/>
<path d="M5.44019 8.23296C5.56879 8.23296 5.67305 8.12867 5.67305 8.00002C5.67305 7.87138 5.56879 7.76709 5.44019 7.76709" stroke="white" stroke-linecap="round" stroke-linejoin="round"/>
<path d="M10.5632 8.23296C10.4346 8.23296 10.3303 8.12867 10.3303 8.00002C10.3303 7.87138 10.4346 7.76709 10.5632 7.76709" stroke="white" stroke-linecap="round" stroke-linejoin="round"/>
<path d="M10.5632 8.23296C10.6918 8.23296 10.7961 8.12867 10.7961 8.00002C10.7961 7.87138 10.6918 7.76709 10.5632 7.76709" stroke="white" stroke-linecap="round" stroke-linejoin="round"/>
<path d="M7.99823 2C6.91324 2.00034 5.84865 2.29505 4.91785 2.85275C3.98707 3.41045 3.22493 4.21024 2.71262 5.16695C2.20032 6.12366 1.95703 7.20146 2.00866 8.28554C2.0603 9.36962 2.40494 10.4194 3.00586 11.323L2 14L5.36824 13.3907C6.1793 13.7872 7.06935 13.9954 7.97207 13.9999C8.87478 14.0044 9.76685 13.805 10.5818 13.4165C11.3967 13.0282 12.1136 12.4608 12.6787 11.7567C13.2439 11.0526 13.6431 10.23 13.8461 9.35017C14.0493 8.47035 14.0513 7.556 13.852 6.67531C13.6527 5.7946 13.2572 4.97025 12.6951 4.26372C12.133 3.55717 11.4186 2.98667 10.6054 2.59471C9.79215 2.20276 8.90095 1.99947 7.99823 2Z" stroke="white" stroke-linecap="round" stroke-linejoin="round"/>
</svg>
