<svg width="16" height="16" viewBox="0 0 16 16" fill="none" xmlns="http://www.w3.org/2000/svg">
<path d="M6.39062 9.40039C6.1582 9.98937 6.28298 10.718 6.90234 11.168L8.00781 11.9717L7.58594 13.2725C7.3502 13.998 7.67416 14.6591 8.20508 15H1V12.2002C1 10.6538 1.99377 9.40039 3.5 9.40039H6.39062Z" fill="#0A8800"/>
<path d="M8.9502 11.4287C8.98751 11.4662 9.01861 11.5086 9.04199 11.5547L9.07129 11.627C9.05535 11.5779 9.03148 11.5316 9.00098 11.4893L8.9502 11.4287Z" fill="#0A8800"/>
<path d="M6.36328 1C8.37159 1 10 2.67154 10 4.7334C9.99997 6.79523 8.37157 8.4668 6.36328 8.4668C4.35516 8.4666 2.72757 6.79511 2.72754 4.7334C2.72754 2.67166 4.35514 1.0002 6.36328 1Z" fill="#0A8800"/>
<path d="M10.5245 7.46352C10.6741 7.00287 11.3259 7.00287 11.4755 7.46353L12.0103 9.10942C12.0773 9.31544 12.2692 9.45492 12.4858 9.45492H14.2164C14.7008 9.45492 14.9022 10.0747 14.5103 10.3594L13.1102 11.3766C12.935 11.504 12.8617 11.7296 12.9286 11.9357L13.4634 13.5816C13.6131 14.0422 13.0858 14.4253 12.694 14.1406L11.2939 13.1234C11.1186 12.996 10.8814 12.996 10.7061 13.1234L9.30602 14.1406C8.91417 14.4253 8.38693 14.0422 8.5366 13.5816L9.07139 11.9357C9.13832 11.7296 9.06499 11.504 8.88975 11.3766L7.48967 10.3594C7.09781 10.0747 7.2992 9.45492 7.78356 9.45492H9.51416C9.73077 9.45492 9.92275 9.31544 9.98969 9.10942L10.5245 7.46352Z" fill="#0A8800"/>
</svg>
