<svg width="32" height="32" viewBox="0 0 32 32" fill="none" xmlns="http://www.w3.org/2000/svg">
<path d="M6.29425 18.6871L15.2097 27.2417C15.5464 27.5647 15.7147 27.7263 15.9172 27.7533C15.9722 27.7607 16.0278 27.7607 16.0828 27.7533C16.2853 27.7263 16.4536 27.5647 16.7903 27.2417L25.7058 18.6871C28.1533 16.3386 28.4519 12.5286 26.4002 9.82749L25.9341 9.21383C23.4441 5.93576 18.3623 6.47773 16.6197 10.2072C16.3739 10.7331 15.6261 10.7331 15.3803 10.2072C13.6377 6.47773 8.55591 5.93575 6.06594 9.21382L5.59981 9.82749C3.54808 12.5286 3.84672 16.3386 6.29425 18.6871Z" stroke="currentColor"/>
</svg>
