<svg width="20" height="20" viewBox="0 0 20 20" fill="none" xmlns="http://www.w3.org/2000/svg">
<path d="M1.25 3.125C1.25 2.77982 1.55135 2.5 1.92308 2.5H18.0769C18.4487 2.5 18.75 2.77982 18.75 3.125V5.625C18.75 5.97018 18.4487 6.25 18.0769 6.25H1.92308C1.55135 6.25 1.25 5.97018 1.25 5.625V3.125Z" fill="#0A8800"/>
<path d="M16.8184 7.5C17.1948 7.50009 17.5 7.77988 17.5 8.125V16.875C17.5 17.2201 17.1948 17.4999 16.8184 17.5H3.18164C2.80516 17.4999 2.5 17.2201 2.5 16.875V8.125C2.5 7.77988 2.80516 7.50009 3.18164 7.5H16.8184ZM6.59082 12.29L9.40332 14.5811V12.8203H12.9551V11.7617H9.40332V10L6.59082 12.29Z" fill="#0A8800"/>
</svg>
