<svg width="103" height="20" viewBox="0 0 103 20" fill="none" xmlns="http://www.w3.org/2000/svg">
<path d="M8.90801 2.7879C9.16252 2.0046 10.2707 2.0046 10.5252 2.7879L11.7072 6.42585C11.821 6.77615 12.1475 7.01332 12.5158 7.01332H16.341C17.1646 7.01332 17.507 8.06725 16.8407 8.55135L13.7461 10.7997C13.4481 11.0162 13.3234 11.4 13.4372 11.7503L14.6193 15.3882C14.8738 16.1715 13.9773 16.8229 13.311 16.3388L10.2163 14.0904C9.91835 13.8739 9.51485 13.8739 9.21686 14.0904L6.12224 16.3388C5.45593 16.8229 4.55941 16.1715 4.81392 15.3882L5.99595 11.7503C6.10978 11.4 5.98509 11.0162 5.6871 10.7997L2.59248 8.55135C1.92617 8.06724 2.26861 7.01332 3.09222 7.01332H6.91738C7.28571 7.01332 7.61215 6.77615 7.72597 6.42585L8.90801 2.7879Z" fill="#FF7710"/>
<path d="M29.556 2.7879C29.8105 2.0046 30.9186 2.0046 31.1731 2.7879L32.3552 6.42585C32.469 6.77615 32.7954 7.01332 33.1638 7.01332H36.9889C37.8125 7.01332 38.155 8.06725 37.4887 8.55135L34.394 10.7997C34.0961 11.0162 33.9714 11.4 34.0852 11.7503L35.2672 15.3882C35.5217 16.1715 34.6252 16.8229 33.9589 16.3388L30.8643 14.0904C30.5663 13.8739 30.1628 13.8739 29.8648 14.0904L26.7702 16.3388C26.1039 16.8229 25.2074 16.1715 25.4619 15.3882L26.6439 11.7503C26.7577 11.4 26.633 11.0162 26.3351 10.7997L23.2404 8.55135C22.5741 8.06724 22.9166 7.01332 23.7402 7.01332H27.5653C27.9337 7.01332 28.2601 6.77615 28.3739 6.42585L29.556 2.7879Z" fill="#FF7710"/>
<path d="M50.2037 2.7879C50.4582 2.0046 51.5663 2.0046 51.8208 2.7879L53.0029 6.42585C53.1167 6.77615 53.4431 7.01332 53.8115 7.01332H57.6366C58.4602 7.01332 58.8027 8.06725 58.1364 8.55135L55.0418 10.7997C54.7438 11.0162 54.6191 11.4 54.7329 11.7503L55.9149 15.3882C56.1694 16.1715 55.2729 16.8229 54.6066 16.3388L51.512 14.0904C51.214 13.8739 50.8105 13.8739 50.5125 14.0904L47.4179 16.3388C46.7516 16.8229 45.8551 16.1715 46.1096 15.3882L47.2916 11.7503C47.4054 11.4 47.2807 11.0162 46.9828 10.7997L43.8881 8.55135C43.2218 8.06724 43.5643 7.01332 44.3879 7.01332H48.213C48.5814 7.01332 48.9078 6.77615 49.0216 6.42585L50.2037 2.7879Z" fill="#FF7710"/>
<path d="M71.4287 2.9751C71.4925 2.77962 71.7433 2.75512 71.8535 2.90186L71.8906 2.9751L73.0732 6.61377C73.2684 7.21406 73.8277 7.62052 74.459 7.62061H78.2842C78.4901 7.62061 78.5909 7.85117 78.4854 8.00146L78.4268 8.06006L75.332 10.3081C74.8532 10.6561 74.6361 11.2563 74.7715 11.8247L74.8027 11.938L75.9854 15.5757C76.049 15.7717 75.8603 15.9387 75.6846 15.8843L75.6113 15.8472L72.5166 13.5991C72.0378 13.2513 71.4001 13.2294 70.9014 13.5337L70.8037 13.5991L67.709 15.8472C67.5425 15.9681 67.3254 15.8413 67.3223 15.6577L67.335 15.5757L68.5166 11.938C68.6995 11.3751 68.5236 10.7616 68.0801 10.3813L67.9873 10.3081L64.8926 8.06006C64.7025 7.92178 64.8002 7.62096 65.0352 7.62061H68.8604C69.4522 7.62061 69.9814 7.26343 70.2061 6.72412L70.2471 6.61377L71.4287 2.9751Z" fill="white" stroke="#CDCDCD" stroke-width="1.21457"/>
<path d="M71.6587 2.20068V13.9282C71.4832 13.9281 71.3078 13.9821 71.1587 14.0903L68.0639 16.3394C67.3976 16.8233 66.5008 16.1714 66.7553 15.3882L67.937 11.7505C68.0508 11.4002 67.9263 11.0168 67.6284 10.8003L64.5337 8.55127C63.8678 8.06707 64.2102 7.01324 65.0337 7.01318H68.8589C69.2271 7.01318 69.5535 6.77642 69.6675 6.42627L70.8491 2.7876C70.9765 2.39591 71.3179 2.20047 71.6587 2.20068Z" fill="#FF7710"/>
<path d="M92.0764 2.9751C92.1402 2.77962 92.391 2.75512 92.5012 2.90186L92.5383 2.9751L93.7209 6.61377C93.9161 7.21406 94.4755 7.62052 95.1067 7.62061H98.9319C99.1378 7.62061 99.2386 7.85117 99.1331 8.00146L99.0745 8.06006L95.9797 10.3081C95.5009 10.6561 95.2838 11.2563 95.4192 11.8247L95.4504 11.938L96.6331 15.5757C96.6967 15.7717 96.508 15.9387 96.3323 15.8843L96.259 15.8472L93.1643 13.5991C92.6855 13.2513 92.0478 13.2294 91.5491 13.5337L91.4514 13.5991L88.3567 15.8472C88.1902 15.9681 87.9731 15.8413 87.97 15.6577L87.9827 15.5757L89.1643 11.938C89.3472 11.3751 89.1713 10.7616 88.7278 10.3813L88.635 10.3081L85.5403 8.06006C85.3502 7.92178 85.4479 7.62096 85.6829 7.62061H89.5081C90.0999 7.62061 90.6291 7.26343 90.8538 6.72412L90.8948 6.61377L92.0764 2.9751Z" fill="white" stroke="#CDCDCD" stroke-width="1.21457"/>
</svg>
