<svg width="103" height="20" viewBox="0 0 103 20" fill="none" xmlns="http://www.w3.org/2000/svg">
<path d="M8.90801 2.95343C9.16252 2.17013 10.2707 2.17013 10.5252 2.95343L11.7072 6.59137C11.821 6.94168 12.1475 7.17885 12.5158 7.17885H16.341C17.1646 7.17885 17.507 8.23277 16.8407 8.71688L13.7461 10.9653C13.4481 11.1818 13.3234 11.5655 13.4372 11.9158L14.6193 15.5538C14.8738 16.3371 13.9773 16.9884 13.311 16.5043L10.2163 14.2559C9.91835 14.0394 9.51485 14.0394 9.21686 14.2559L6.12224 16.5043C5.45593 16.9884 4.55941 16.3371 4.81392 15.5538L5.99595 11.9158C6.10978 11.5655 5.98509 11.1818 5.6871 10.9653L2.59248 8.71688C1.92617 8.23277 2.26861 7.17885 3.09222 7.17885H6.91738C7.28571 7.17885 7.61215 6.94168 7.72597 6.59137L8.90801 2.95343Z" fill="#FF7710"/>
<path d="M30.1331 3.14062C30.1969 2.94515 30.4476 2.92065 30.5579 3.06738L30.595 3.14062L31.7776 6.7793C31.9728 7.37959 32.5321 7.78605 33.1633 7.78613H36.9885C37.1944 7.78613 37.2953 8.01669 37.1897 8.16699L37.1311 8.22559L34.0364 10.4736C33.5576 10.8216 33.3404 11.4218 33.4758 11.9902L33.5071 12.1035L34.6897 15.7412C34.7534 15.9372 34.5646 16.1042 34.3889 16.0498L34.3157 16.0127L31.2209 13.7646C30.7421 13.4168 30.1044 13.395 29.6057 13.6992L29.5081 13.7646L26.4133 16.0127C26.2468 16.1337 26.0297 16.0068 26.0266 15.8232L26.0393 15.7412L27.2209 12.1035C27.4038 11.5406 27.2279 10.9272 26.7844 10.5469L26.6917 10.4736L23.5969 8.22559C23.4068 8.08731 23.5045 7.78649 23.7395 7.78613H27.5647C28.1565 7.78613 28.6858 7.42896 28.9104 6.88965L28.9514 6.7793L30.1331 3.14062Z" fill="white" stroke="#CDCDCD" stroke-width="1.21457"/>
<path d="M50.781 3.14062C50.8448 2.94515 51.0955 2.92065 51.2058 3.06738L51.2429 3.14062L52.4255 6.7793C52.6207 7.37959 53.18 7.78605 53.8113 7.78613H57.6365C57.8424 7.78613 57.9432 8.01669 57.8376 8.16699L57.7791 8.22559L54.6843 10.4736C54.2055 10.8216 53.9884 11.4218 54.1238 11.9902L54.155 12.1035L55.3376 15.7412C55.4013 15.9372 55.2126 16.1042 55.0369 16.0498L54.9636 16.0127L51.8689 13.7646C51.3901 13.4168 50.7524 13.395 50.2537 13.6992L50.156 13.7646L47.0613 16.0127C46.8948 16.1337 46.6777 16.0068 46.6746 15.8232L46.6873 15.7412L47.8689 12.1035C48.0518 11.5406 47.8759 10.9272 47.4324 10.5469L47.3396 10.4736L44.2449 8.22559C44.0548 8.08731 44.1525 7.78649 44.3875 7.78613H48.2126C48.8045 7.78613 49.3337 7.42896 49.5583 6.88965L49.5994 6.7793L50.781 3.14062Z" fill="white" stroke="#CDCDCD" stroke-width="1.21457"/>
<path d="M71.4287 3.14062C71.4925 2.94515 71.7433 2.92065 71.8535 3.06738L71.8906 3.14062L73.0732 6.7793C73.2684 7.37959 73.8277 7.78605 74.459 7.78613H78.2842C78.4901 7.78613 78.5909 8.01669 78.4854 8.16699L78.4268 8.22559L75.332 10.4736C74.8532 10.8216 74.6361 11.4218 74.7715 11.9902L74.8027 12.1035L75.9854 15.7412C76.049 15.9372 75.8603 16.1042 75.6846 16.0498L75.6113 16.0127L72.5166 13.7646C72.0378 13.4168 71.4001 13.395 70.9014 13.6992L70.8037 13.7646L67.709 16.0127C67.5425 16.1337 67.3254 16.0068 67.3223 15.8232L67.335 15.7412L68.5166 12.1035C68.6995 11.5406 68.5236 10.9272 68.0801 10.5469L67.9873 10.4736L64.8926 8.22559C64.7025 8.08731 64.8002 7.78649 65.0352 7.78613H68.8604C69.4522 7.78613 69.9814 7.42896 70.2061 6.88965L70.2471 6.7793L71.4287 3.14062Z" fill="white" stroke="#CDCDCD" stroke-width="1.21457"/>
<path d="M92.0764 3.14062C92.1402 2.94515 92.391 2.92065 92.5012 3.06738L92.5383 3.14062L93.7209 6.7793C93.9161 7.37959 94.4755 7.78605 95.1067 7.78613H98.9319C99.1378 7.78613 99.2386 8.01669 99.1331 8.16699L99.0745 8.22559L95.9797 10.4736C95.5009 10.8216 95.2838 11.4218 95.4192 11.9902L95.4504 12.1035L96.6331 15.7412C96.6967 15.9372 96.508 16.1042 96.3323 16.0498L96.259 16.0127L93.1643 13.7646C92.6855 13.4168 92.0478 13.395 91.5491 13.6992L91.4514 13.7646L88.3567 16.0127C88.1902 16.1337 87.9731 16.0068 87.97 15.8232L87.9827 15.7412L89.1643 12.1035C89.3472 11.5406 89.1713 10.9272 88.7278 10.5469L88.635 10.4736L85.5403 8.22559C85.3502 8.08731 85.4479 7.78649 85.6829 7.78613H89.5081C90.0999 7.78613 90.6291 7.42896 90.8538 6.88965L90.8948 6.7793L92.0764 3.14062Z" fill="white" stroke="#CDCDCD" stroke-width="1.21457"/>
</svg>
