<svg width="168" height="33" viewBox="0 0 168 33" fill="none" xmlns="http://www.w3.org/2000/svg">
<path d="M14.6685 4.38351C15.0876 3.09368 16.9124 3.09368 17.3315 4.38352L19.2779 10.374C19.4653 10.9508 20.0029 11.3414 20.6094 11.3414H26.9081C28.2644 11.3414 28.8282 13.0768 27.731 13.874L22.6352 17.5763C22.1446 17.9328 21.9392 18.5647 22.1267 19.1416L24.0731 25.132C24.4922 26.4219 23.0159 27.4945 21.9187 26.6973L16.8229 22.995C16.3322 22.6385 15.6678 22.6385 15.1771 22.995L10.0813 26.6973C8.98409 27.4945 7.50782 26.4219 7.92692 25.132L9.87334 19.1416C10.0608 18.5647 9.85544 17.9328 9.36476 17.5763L4.26895 13.874C3.17175 13.0768 3.73564 11.3414 5.09185 11.3414H11.3906C11.9971 11.3414 12.5347 10.9508 12.7221 10.374L14.6685 4.38351Z" fill="#FF7710"/>
<path d="M48.6685 4.38351C49.0876 3.09368 50.9124 3.09368 51.3315 4.38352L53.2779 10.374C53.4653 10.9508 54.0029 11.3414 54.6094 11.3414H60.9081C62.2644 11.3414 62.8282 13.0768 61.731 13.874L56.6352 17.5763C56.1446 17.9328 55.9392 18.5647 56.1267 19.1416L58.0731 25.132C58.4922 26.4219 57.0159 27.4945 55.9187 26.6973L50.8229 22.995C50.3322 22.6385 49.6678 22.6385 49.1771 22.995L44.0813 26.6973C42.9841 27.4945 41.5078 26.4219 41.9269 25.132L43.8733 19.1416C44.0608 18.5647 43.8554 17.9328 43.3648 17.5763L38.269 13.874C37.1718 13.0768 37.7356 11.3414 39.0919 11.3414H45.3906C45.9971 11.3414 46.5347 10.9508 46.7221 10.374L48.6685 4.38351Z" fill="#FF7710"/>
<path d="M82.6685 4.38351C83.0876 3.09368 84.9124 3.09368 85.3315 4.38352L87.2779 10.374C87.4653 10.9508 88.0029 11.3414 88.6094 11.3414H94.9081C96.2644 11.3414 96.8282 13.0768 95.731 13.874L90.6352 17.5763C90.1446 17.9328 89.9392 18.5647 90.1267 19.1416L92.0731 25.132C92.4922 26.4219 91.0159 27.4945 89.9187 26.6973L84.8229 22.995C84.3322 22.6385 83.6678 22.6385 83.1771 22.995L78.0813 26.6973C76.9841 27.4945 75.5078 26.4219 75.9269 25.132L77.8733 19.1416C78.0608 18.5647 77.8554 17.9328 77.3648 17.5763L72.269 13.874C71.1718 13.0768 71.7356 11.3414 73.0919 11.3414H79.3906C79.9971 11.3414 80.5347 10.9508 80.7221 10.374L82.6685 4.38351Z" fill="#FF7710"/>
<path d="M116.668 4.38351C117.087 3.09368 118.912 3.09368 119.331 4.38352L121.277 10.374C121.465 10.9508 122.002 11.3414 122.609 11.3414H128.908C130.264 11.3414 130.828 13.0768 129.731 13.874L124.635 17.5763C124.144 17.9328 123.939 18.5647 124.126 19.1416L126.073 25.132C126.492 26.4219 125.015 27.4945 123.918 26.6973L118.822 22.995C118.332 22.6385 117.667 22.6385 117.177 22.995L112.081 26.6973C110.984 27.4945 109.507 26.4219 109.926 25.132L111.873 19.1416C112.06 18.5647 111.855 17.9328 111.364 17.5763L106.268 13.874C105.171 13.0768 105.735 11.3414 107.091 11.3414H113.39C113.997 11.3414 114.534 10.9508 114.722 10.374L116.668 4.38351Z" fill="#FF7710"/>
<path d="M150.669 4.38351C151.088 3.09368 152.913 3.09368 153.332 4.38352L155.278 10.374C155.466 10.9508 156.003 11.3414 156.61 11.3414H162.909C164.265 11.3414 164.829 13.0768 163.732 13.874L158.636 17.5763C158.145 17.9328 157.94 18.5647 158.127 19.1416L160.074 25.132C160.493 26.4219 159.016 27.4945 157.919 26.6973L152.823 22.995C152.333 22.6385 151.668 22.6385 151.178 22.995L146.082 26.6973C144.985 27.4945 143.508 26.4219 143.927 25.132L145.874 19.1416C146.061 18.5647 145.856 17.9328 145.365 17.5763L140.269 13.874C139.172 13.0768 139.736 11.3414 141.092 11.3414H147.391C147.998 11.3414 148.535 10.9508 148.723 10.374L150.669 4.38351Z" fill="#FF7710"/>
</svg>
