<svg width="103" height="20" viewBox="0 0 103 20" fill="none" xmlns="http://www.w3.org/2000/svg">
<path d="M8.90801 2.48858C9.16252 1.70528 10.2707 1.70529 10.5252 2.48859L11.7072 6.12653C11.821 6.47683 12.1475 6.714 12.5158 6.714H16.341C17.1646 6.714 17.507 7.76793 16.8407 8.25204L13.7461 10.5004C13.4481 10.7169 13.3234 11.1007 13.4372 11.451L14.6193 15.0889C14.8738 15.8722 13.9773 16.5236 13.311 16.0395L10.2163 13.7911C9.91835 13.5746 9.51485 13.5746 9.21686 13.7911L6.12224 16.0395C5.45593 16.5236 4.55941 15.8722 4.81392 15.0889L5.99595 11.451C6.10978 11.1007 5.98509 10.7169 5.6871 10.5004L2.59248 8.25203C1.92617 7.76793 2.26861 6.714 3.09222 6.714H6.91738C7.28571 6.714 7.61215 6.47683 7.72597 6.12653L8.90801 2.48858Z" fill="#FF7710"/>
<path d="M29.5557 2.48858C29.8102 1.70528 30.9184 1.70529 31.1729 2.48859L32.3549 6.12653C32.4688 6.47683 32.7952 6.714 33.1635 6.714H36.9887C37.8123 6.714 38.1547 7.76793 37.4884 8.25204L34.3938 10.5004C34.0958 10.7169 33.9711 11.1007 34.0849 11.451L35.267 15.0889C35.5215 15.8722 34.625 16.5236 33.9587 16.0395L30.864 13.7911C30.5661 13.5746 30.1626 13.5746 29.8646 13.7911L26.7699 16.0395C26.1036 16.5236 25.2071 15.8722 25.4616 15.0889L26.6437 11.451C26.7575 11.1007 26.6328 10.7169 26.3348 10.5004L23.2402 8.25203C22.5739 7.76793 22.9163 6.714 23.7399 6.714H27.5651C27.9334 6.714 28.2599 6.47683 28.3737 6.12653L29.5557 2.48858Z" fill="#FF7710"/>
<path d="M50.2034 2.48858C50.4579 1.70528 51.5661 1.70529 51.8206 2.48859L53.0026 6.12653C53.1165 6.47683 53.4429 6.714 53.8112 6.714H57.6364C58.46 6.714 58.8024 7.76793 58.1361 8.25204L55.0415 10.5004C54.7435 10.7169 54.6188 11.1007 54.7327 11.451L55.9147 15.0889C56.1692 15.8722 55.2727 16.5236 54.6064 16.0395L51.5117 13.7911C51.2138 13.5746 50.8103 13.5746 50.5123 13.7911L47.4177 16.0395C46.7513 16.5236 45.8548 15.8722 46.1093 15.0889L47.2914 11.451C47.4052 11.1007 47.2805 10.7169 46.9825 10.5004L43.8879 8.25203C43.2216 7.76793 43.564 6.714 44.3876 6.714H48.2128C48.5811 6.714 48.9076 6.47683 49.0214 6.12653L50.2034 2.48858Z" fill="#FF7710"/>
<path d="M70.8514 2.48858C71.1059 1.70528 72.214 1.70529 72.4685 2.48859L73.6506 6.12653C73.7644 6.47683 74.0908 6.714 74.4592 6.714H78.2843C79.108 6.714 79.4504 7.76793 78.7841 8.25204L75.6895 10.5004C75.3915 10.7169 75.2668 11.1007 75.3806 11.451L76.5626 15.0889C76.8172 15.8722 75.9206 16.5236 75.2543 16.0395L72.1597 13.7911C71.8617 13.5746 71.4582 13.5746 71.1602 13.7911L68.0656 16.0395C67.3993 16.5236 66.5028 15.8722 66.7573 15.0889L67.9393 11.451C68.0531 11.1007 67.9284 10.7169 67.6305 10.5004L64.5358 8.25203C63.8695 7.76793 64.212 6.714 65.0356 6.714H68.8607C69.2291 6.714 69.5555 6.47683 69.6693 6.12653L70.8514 2.48858Z" fill="#FF7710"/>
<path d="M91.4991 2.48858C91.7536 1.70528 92.8617 1.70529 93.1163 2.48859L94.2983 6.12653C94.4121 6.47683 94.7386 6.714 95.1069 6.714H98.932C99.7557 6.714 100.098 7.76793 99.4318 8.25204L96.3372 10.5004C96.0392 10.7169 95.9145 11.1007 96.0283 11.451L97.2103 15.0889C97.4649 15.8722 96.5683 16.5236 95.902 16.0395L92.8074 13.7911C92.5094 13.5746 92.1059 13.5746 91.8079 13.7911L88.7133 16.0395C88.047 16.5236 87.1505 15.8722 87.405 15.0889L88.587 11.451C88.7008 11.1007 88.5762 10.7169 88.2782 10.5004L85.1835 8.25203C84.5172 7.76793 84.8597 6.714 85.6833 6.714H89.5084C89.8768 6.714 90.2032 6.47683 90.317 6.12653L91.4991 2.48858Z" fill="#FF7710"/>
</svg>
