<svg width="168" height="33" viewBox="0 0 168 33" fill="none" xmlns="http://www.w3.org/2000/svg">
<path d="M14.6685 4.38351C15.0876 3.09368 16.9124 3.09368 17.3315 4.38352L19.2779 10.374C19.4653 10.9508 20.0029 11.3414 20.6094 11.3414H26.9081C28.2644 11.3414 28.8282 13.0768 27.731 13.874L22.6352 17.5763C22.1446 17.9328 21.9392 18.5647 22.1267 19.1416L24.0731 25.132C24.4922 26.4219 23.0159 27.4945 21.9187 26.6973L16.8229 22.995C16.3322 22.6385 15.6678 22.6385 15.1771 22.995L10.0813 26.6973C8.98409 27.4945 7.50782 26.4219 7.92692 25.132L9.87334 19.1416C10.0608 18.5647 9.85544 17.9328 9.36476 17.5763L4.26895 13.874C3.17175 13.0768 3.73564 11.3414 5.09185 11.3414H11.3906C11.9971 11.3414 12.5347 10.9508 12.7221 10.374L14.6685 4.38351Z" fill="#FF7710"/>
<path d="M48.6675 4.38351C49.0866 3.09368 50.9114 3.09368 51.3305 4.38352L53.2769 10.374C53.4644 10.9508 54.0019 11.3414 54.6084 11.3414H60.9072C62.2634 11.3414 62.8273 13.0768 61.7301 13.874L56.6343 17.5763C56.1436 17.9328 55.9383 18.5647 56.1257 19.1416L58.0721 25.132C58.4912 26.4219 57.0149 27.4945 55.9177 26.6973L50.8219 22.995C50.3312 22.6385 49.6668 22.6385 49.1761 22.995L44.0803 26.6973C42.9831 27.4945 41.5068 26.4219 41.9259 25.132L43.8724 19.1416C44.0598 18.5647 43.8545 17.9328 43.3638 17.5763L38.268 13.874C37.1708 13.0768 37.7347 11.3414 39.0909 11.3414H45.3896C45.9962 11.3414 46.5337 10.9508 46.7211 10.374L48.6675 4.38351Z" fill="#FF7710"/>
<path d="M82.669 4.38351C83.0881 3.09368 84.9129 3.09368 85.332 4.38352L87.2784 10.374C87.4658 10.9508 88.0034 11.3414 88.6099 11.3414H94.9086C96.2649 11.3414 96.8287 13.0768 95.7315 13.874L90.6357 17.5763C90.145 17.9328 89.9397 18.5647 90.1271 19.1416L92.0736 25.132C92.4927 26.4219 91.0164 27.4945 89.9192 26.6973L84.8234 22.995C84.3327 22.6385 83.6683 22.6385 83.1776 22.995L78.0818 26.6973C76.9846 27.4945 75.5083 26.4219 75.9274 25.132L77.8738 19.1416C78.0613 18.5647 77.8559 17.9328 77.3652 17.5763L72.2694 13.874C71.1722 13.0768 71.7361 11.3414 73.0923 11.3414H79.3911C79.9976 11.3414 80.5352 10.9508 80.7226 10.374L82.669 4.38351Z" fill="#FF7710"/>
<path d="M151.619 4.69287C151.732 4.34747 152.197 4.32536 152.354 4.62744L152.381 4.69287L154.327 10.6831C154.649 11.6719 155.57 12.3413 156.61 12.3413H162.908C163.272 12.3414 163.436 12.7769 163.197 13.019L163.144 13.0649L158.048 16.7671C157.26 17.34 156.9 18.3281 157.123 19.2642L157.176 19.4507L159.122 25.4409C159.235 25.7863 158.871 26.0777 158.567 25.9253L158.507 25.8882L153.411 22.186C152.623 21.613 151.572 21.5771 150.75 22.0786L150.589 22.186L145.493 25.8882C145.2 26.1015 144.81 25.8457 144.862 25.5093L144.878 25.4409L146.824 19.4507C147.126 18.5236 146.835 17.5134 146.105 16.8872L145.952 16.7671L140.857 13.0649C140.544 12.8371 140.705 12.3414 141.092 12.3413H147.391C148.366 12.3413 149.237 11.7531 149.607 10.8647L149.673 10.6831L151.619 4.69287Z" fill="white" stroke="#CDCDCD" stroke-width="2"/>
<path d="M151.996 22.728C151.708 22.7281 151.419 22.8166 151.174 22.9946L146.078 26.6978C144.981 27.4948 143.504 26.422 143.923 25.1323L145.87 19.1411C146.057 18.5645 145.852 17.9331 145.362 17.5767L140.266 13.8735C139.169 13.0764 139.732 11.3416 141.088 11.3413H147.387C147.993 11.3413 148.532 10.9504 148.719 10.3735L150.665 4.3833C150.875 3.73865 151.436 3.41662 151.996 3.4165V22.728Z" fill="#FF7710"/>
<path d="M116.668 4.38351C117.087 3.09368 118.912 3.09368 119.331 4.38352L121.277 10.374C121.465 10.9508 122.002 11.3414 122.609 11.3414H128.908C130.264 11.3414 130.828 13.0768 129.731 13.874L124.635 17.5763C124.144 17.9328 123.939 18.5647 124.126 19.1416L126.073 25.132C126.492 26.4219 125.015 27.4945 123.918 26.6973L118.822 22.995C118.332 22.6385 117.667 22.6385 117.177 22.995L112.081 26.6973C110.984 27.4945 109.507 26.4219 109.926 25.132L111.873 19.1416C112.06 18.5647 111.855 17.9328 111.364 17.5763L106.268 13.874C105.171 13.0768 105.735 11.3414 107.091 11.3414H113.39C113.997 11.3414 114.534 10.9508 114.722 10.374L116.668 4.38351Z" fill="#FF7710"/>
</svg>
