<svg width="103" height="20" viewBox="0 0 103 20" fill="none" xmlns="http://www.w3.org/2000/svg">
<path d="M8.90801 2.65411C9.16252 1.87081 10.2707 1.87081 10.5252 2.65411L11.7072 6.29206C11.821 6.64236 12.1475 6.87953 12.5158 6.87953H16.341C17.1646 6.87953 17.507 7.93346 16.8407 8.41756L13.7461 10.6659C13.4481 10.8824 13.3234 11.2662 13.4372 11.6165L14.6193 15.2544C14.8738 16.0377 13.9773 16.6891 13.311 16.205L10.2163 13.9566C9.91835 13.7401 9.51485 13.7401 9.21686 13.9566L6.12224 16.205C5.45593 16.6891 4.55941 16.0377 4.81392 15.2544L5.99595 11.6165C6.10978 11.2662 5.98509 10.8824 5.6871 10.6659L2.59248 8.41756C1.92617 7.93346 2.26861 6.87953 3.09222 6.87953H6.91738C7.28571 6.87953 7.61215 6.64236 7.72597 6.29206L8.90801 2.65411Z" fill="#FF7710"/>
<path d="M29.5557 2.65411C29.8102 1.87081 30.9184 1.87081 31.1729 2.65411L32.3549 6.29206C32.4688 6.64236 32.7952 6.87953 33.1635 6.87953H36.9887C37.8123 6.87953 38.1547 7.93346 37.4884 8.41756L34.3938 10.6659C34.0958 10.8824 33.9711 11.2662 34.0849 11.6165L35.267 15.2544C35.5215 16.0377 34.625 16.6891 33.9587 16.205L30.864 13.9566C30.5661 13.7401 30.1626 13.7401 29.8646 13.9566L26.7699 16.205C26.1036 16.6891 25.2071 16.0377 25.4616 15.2544L26.6437 11.6165C26.7575 11.2662 26.6328 10.8824 26.3348 10.6659L23.2402 8.41756C22.5739 7.93346 22.9163 6.87953 23.7399 6.87953H27.5651C27.9334 6.87953 28.2599 6.64236 28.3737 6.29206L29.5557 2.65411Z" fill="#FF7710"/>
<path d="M50.781 2.84131C50.8448 2.64583 51.0955 2.62133 51.2058 2.76807L51.2429 2.84131L52.4255 6.47998C52.6207 7.08027 53.18 7.48673 53.8113 7.48682H57.6365C57.8424 7.48682 57.9432 7.71738 57.8376 7.86768L57.7791 7.92627L54.6843 10.1743C54.2055 10.5223 53.9884 11.1225 54.1238 11.6909L54.155 11.8042L55.3376 15.4419C55.4013 15.6379 55.2126 15.8049 55.0369 15.7505L54.9636 15.7134L51.8689 13.4653C51.3901 13.1175 50.7524 13.0956 50.2537 13.3999L50.156 13.4653L47.0613 15.7134C46.8948 15.8344 46.6777 15.7075 46.6746 15.5239L46.6873 15.4419L47.8689 11.8042C48.0518 11.2413 47.8759 10.6279 47.4324 10.2476L47.3396 10.1743L44.2449 7.92627C44.0548 7.78799 44.1525 7.48718 44.3875 7.48682H48.2126C48.8045 7.48682 49.3337 7.12964 49.5583 6.59033L49.5994 6.47998L50.781 2.84131Z" fill="white" stroke="#CDCDCD" stroke-width="1.21457"/>
<path d="M51.011 2.06689V13.7944C50.8355 13.7943 50.66 13.8483 50.511 13.9565L47.4162 16.2056C46.7499 16.6895 45.8531 16.0377 46.1076 15.2544L47.2893 11.6167C47.4031 11.2664 47.2786 10.883 46.9807 10.6665L43.886 8.41748C43.2201 7.93328 43.5625 6.87945 44.386 6.87939H48.2112C48.5794 6.87939 48.9058 6.64263 49.0197 6.29248L50.2014 2.65381C50.3288 2.26212 50.6702 2.06668 51.011 2.06689Z" fill="#FF7710"/>
<path d="M71.4287 2.84131C71.4925 2.64583 71.7433 2.62133 71.8535 2.76807L71.8906 2.84131L73.0732 6.47998C73.2684 7.08027 73.8277 7.48673 74.459 7.48682H78.2842C78.4901 7.48682 78.5909 7.71738 78.4854 7.86768L78.4268 7.92627L75.332 10.1743C74.8532 10.5223 74.6361 11.1225 74.7715 11.6909L74.8027 11.8042L75.9854 15.4419C76.049 15.6379 75.8603 15.8049 75.6846 15.7505L75.6113 15.7134L72.5166 13.4653C72.0378 13.1175 71.4001 13.0956 70.9014 13.3999L70.8037 13.4653L67.709 15.7134C67.5425 15.8344 67.3254 15.7075 67.3223 15.5239L67.335 15.4419L68.5166 11.8042C68.6995 11.2413 68.5236 10.6279 68.0801 10.2476L67.9873 10.1743L64.8926 7.92627C64.7025 7.78799 64.8002 7.48718 65.0352 7.48682H68.8604C69.4522 7.48682 69.9814 7.12964 70.2061 6.59033L70.2471 6.47998L71.4287 2.84131Z" fill="white" stroke="#CDCDCD" stroke-width="1.21457"/>
<path d="M92.0764 2.84131C92.1402 2.64583 92.391 2.62133 92.5012 2.76807L92.5383 2.84131L93.7209 6.47998C93.9161 7.08027 94.4755 7.48673 95.1067 7.48682H98.9319C99.1378 7.48682 99.2386 7.71738 99.1331 7.86768L99.0745 7.92627L95.9797 10.1743C95.5009 10.5223 95.2838 11.1225 95.4192 11.6909L95.4504 11.8042L96.6331 15.4419C96.6967 15.6379 96.508 15.8049 96.3323 15.7505L96.259 15.7134L93.1643 13.4653C92.6855 13.1175 92.0478 13.0956 91.5491 13.3999L91.4514 13.4653L88.3567 15.7134C88.1902 15.8344 87.9731 15.7075 87.97 15.5239L87.9827 15.4419L89.1643 11.8042C89.3472 11.2413 89.1713 10.6279 88.7278 10.2476L88.635 10.1743L85.5403 7.92627C85.3502 7.78799 85.4479 7.48718 85.6829 7.48682H89.5081C90.0999 7.48682 90.6291 7.12964 90.8538 6.59033L90.8948 6.47998L92.0764 2.84131Z" fill="white" stroke="#CDCDCD" stroke-width="1.21457"/>
</svg>
