<svg width="103" height="21" viewBox="0 0 103 21" fill="none" xmlns="http://www.w3.org/2000/svg">
<path d="M8.90801 3.22101C9.16252 2.43771 10.2707 2.43771 10.5252 3.22101L11.7072 6.85895C11.821 7.20925 12.1475 7.44643 12.5158 7.44643H16.341C17.1646 7.44643 17.507 8.50035 16.8407 8.98446L13.7461 11.2328C13.4481 11.4493 13.3234 11.8331 13.4372 12.1834L14.6193 15.8213C14.8738 16.6046 13.9773 17.256 13.311 16.7719L10.2163 14.5235C9.91835 14.307 9.51485 14.307 9.21686 14.5235L6.12224 16.7719C5.45593 17.256 4.55941 16.6046 4.81392 15.8213L5.99595 12.1834C6.10978 11.8331 5.98509 11.4493 5.6871 11.2328L2.59248 8.98446C1.92617 8.50035 2.26861 7.44643 3.09222 7.44643H6.91738C7.28571 7.44643 7.61215 7.20925 7.72597 6.85895L8.90801 3.22101Z" fill="#FF7710"/>
<path d="M29.556 3.22101C29.8105 2.43771 30.9186 2.43771 31.1731 3.22101L32.3552 6.85895C32.469 7.20925 32.7954 7.44643 33.1638 7.44643H36.9889C37.8125 7.44643 38.155 8.50035 37.4887 8.98446L34.394 11.2328C34.0961 11.4493 33.9714 11.8331 34.0852 12.1834L35.2672 15.8213C35.5217 16.6046 34.6252 17.256 33.9589 16.7719L30.8643 14.5235C30.5663 14.307 30.1628 14.307 29.8648 14.5235L26.7702 16.7719C26.1039 17.256 25.2074 16.6046 25.4619 15.8213L26.6439 12.1834C26.7577 11.8331 26.633 11.4493 26.3351 11.2328L23.2404 8.98446C22.5741 8.50035 22.9166 7.44643 23.7402 7.44643H27.5653C27.9337 7.44643 28.2601 7.20925 28.3739 6.85895L29.556 3.22101Z" fill="#FF7710"/>
<path d="M50.781 3.4082C50.8448 3.21272 51.0955 3.18822 51.2058 3.33496L51.2429 3.4082L52.4255 7.04688C52.6207 7.64717 53.18 8.05363 53.8113 8.05371H57.6365C57.8424 8.05371 57.9432 8.28427 57.8376 8.43457L57.7791 8.49316L54.6843 10.7412C54.2055 11.0892 53.9884 11.6894 54.1238 12.2578L54.155 12.3711L55.3376 16.0088C55.4013 16.2048 55.2126 16.3718 55.0369 16.3174L54.9636 16.2803L51.8689 14.0322C51.3901 13.6844 50.7524 13.6625 50.2537 13.9668L50.156 14.0322L47.0613 16.2803C46.8948 16.4012 46.6777 16.2744 46.6746 16.0908L46.6873 16.0088L47.8689 12.3711C48.0518 11.8082 47.8759 11.1948 47.4324 10.8145L47.3396 10.7412L44.2449 8.49316C44.0548 8.35489 44.1525 8.05407 44.3875 8.05371H48.2126C48.8045 8.05371 49.3337 7.69653 49.5583 7.15723L49.5994 7.04688L50.781 3.4082Z" fill="white" stroke="#CDCDCD" stroke-width="1.21457"/>
<path d="M71.4287 3.4082C71.4925 3.21272 71.7433 3.18822 71.8535 3.33496L71.8906 3.4082L73.0732 7.04688C73.2684 7.64717 73.8277 8.05363 74.459 8.05371H78.2842C78.4901 8.05371 78.5909 8.28427 78.4854 8.43457L78.4268 8.49316L75.332 10.7412C74.8532 11.0892 74.6361 11.6894 74.7715 12.2578L74.8027 12.3711L75.9854 16.0088C76.049 16.2048 75.8603 16.3718 75.6846 16.3174L75.6113 16.2803L72.5166 14.0322C72.0378 13.6844 71.4001 13.6625 70.9014 13.9668L70.8037 14.0322L67.709 16.2803C67.5425 16.4012 67.3254 16.2744 67.3223 16.0908L67.335 16.0088L68.5166 12.3711C68.6995 11.8082 68.5236 11.1948 68.0801 10.8145L67.9873 10.7412L64.8926 8.49316C64.7025 8.35489 64.8002 8.05407 65.0352 8.05371H68.8604C69.4522 8.05371 69.9814 7.69653 70.2061 7.15723L70.2471 7.04688L71.4287 3.4082Z" fill="white" stroke="#CDCDCD" stroke-width="1.21457"/>
<path d="M92.0764 3.4082C92.1402 3.21272 92.391 3.18822 92.5012 3.33496L92.5383 3.4082L93.7209 7.04688C93.9161 7.64717 94.4755 8.05363 95.1067 8.05371H98.9319C99.1378 8.05371 99.2386 8.28427 99.1331 8.43457L99.0745 8.49316L95.9797 10.7412C95.5009 11.0892 95.2838 11.6894 95.4192 12.2578L95.4504 12.3711L96.6331 16.0088C96.6967 16.2048 96.508 16.3718 96.3323 16.3174L96.259 16.2803L93.1643 14.0322C92.6855 13.6844 92.0478 13.6625 91.5491 13.9668L91.4514 14.0322L88.3567 16.2803C88.1902 16.4012 87.9731 16.2744 87.97 16.0908L87.9827 16.0088L89.1643 12.3711C89.3472 11.8082 89.1713 11.1948 88.7278 10.8145L88.635 10.7412L85.5403 8.49316C85.3502 8.35489 85.4479 8.05407 85.6829 8.05371H89.5081C90.0999 8.05371 90.6291 7.69653 90.8538 7.15723L90.8948 7.04688L92.0764 3.4082Z" fill="white" stroke="#CDCDCD" stroke-width="1.21457"/>
</svg>
