<svg width="103" height="21" viewBox="0 0 103 21" fill="none" xmlns="http://www.w3.org/2000/svg">
<path d="M8.90801 3.3548C9.16252 2.57149 10.2707 2.5715 10.5252 3.3548L11.7072 6.99274C11.821 7.34304 12.1475 7.58022 12.5158 7.58022H16.341C17.1646 7.58022 17.507 8.63414 16.8407 9.11825L13.7461 11.3666C13.4481 11.5831 13.3234 11.9669 13.4372 12.3172L14.6193 15.9551C14.8738 16.7384 13.9773 17.3898 13.311 16.9057L10.2163 14.6573C9.91835 14.4408 9.51485 14.4408 9.21686 14.6573L6.12224 16.9057C5.45593 17.3898 4.55941 16.7384 4.81392 15.9551L5.99595 12.3172C6.10978 11.9669 5.98509 11.5831 5.6871 11.3666L2.59248 9.11825C1.92617 8.63414 2.26861 7.58022 3.09222 7.58022H6.91738C7.28571 7.58022 7.61215 7.34304 7.72597 6.99274L8.90801 3.3548Z" fill="#FF7710"/>
<path d="M29.556 3.3548C29.8105 2.57149 30.9186 2.5715 31.1731 3.3548L32.3552 6.99274C32.469 7.34304 32.7954 7.58022 33.1638 7.58022H36.9889C37.8125 7.58022 38.155 8.63414 37.4887 9.11825L34.394 11.3666C34.0961 11.5831 33.9714 11.9669 34.0852 12.3172L35.2672 15.9551C35.5217 16.7384 34.6252 17.3898 33.9589 16.9057L30.8643 14.6573C30.5663 14.4408 30.1628 14.4408 29.8648 14.6573L26.7702 16.9057C26.1039 17.3898 25.2074 16.7384 25.4619 15.9551L26.6439 12.3172C26.7577 11.9669 26.633 11.5831 26.3351 11.3666L23.2404 9.11825C22.5741 8.63414 22.9166 7.58022 23.7402 7.58022H27.5653C27.9337 7.58022 28.2601 7.34304 28.3739 6.99274L29.556 3.3548Z" fill="#FF7710"/>
<path d="M50.2037 3.3548C50.4582 2.57149 51.5663 2.5715 51.8208 3.3548L53.0029 6.99274C53.1167 7.34304 53.4431 7.58022 53.8115 7.58022H57.6366C58.4602 7.58022 58.8027 8.63414 58.1364 9.11825L55.0418 11.3666C54.7438 11.5831 54.6191 11.9669 54.7329 12.3172L55.9149 15.9551C56.1694 16.7384 55.2729 17.3898 54.6066 16.9057L51.512 14.6573C51.214 14.4408 50.8105 14.4408 50.5125 14.6573L47.4179 16.9057C46.7516 17.3898 45.8551 16.7384 46.1096 15.9551L47.2916 12.3172C47.4054 11.9669 47.2807 11.5831 46.9828 11.3666L43.8881 9.11825C43.2218 8.63414 43.5643 7.58022 44.3879 7.58022H48.213C48.5814 7.58022 48.9078 7.34304 49.0216 6.99274L50.2037 3.3548Z" fill="#FF7710"/>
<path d="M70.8509 3.3548C71.1054 2.57149 72.2136 2.5715 72.4681 3.3548L73.6501 6.99274C73.7639 7.34304 74.0904 7.58022 74.4587 7.58022H78.2839C79.1075 7.58022 79.4499 8.63414 78.7836 9.11825L75.689 11.3666C75.391 11.5831 75.2663 11.9669 75.3801 12.3172L76.5622 15.9551C76.8167 16.7384 75.9201 17.3898 75.2538 16.9057L72.1592 14.6573C71.8612 14.4408 71.4577 14.4408 71.1597 14.6573L68.0651 16.9057C67.3988 17.3898 66.5023 16.7384 66.7568 15.9551L67.9388 12.3172C68.0526 11.9669 67.928 11.5831 67.63 11.3666L64.5354 9.11825C63.869 8.63414 64.2115 7.58022 65.0351 7.58022H68.8602C69.2286 7.58022 69.555 7.34304 69.6688 6.99274L70.8509 3.3548Z" fill="#FF7710"/>
<path d="M92.0764 3.54199C92.1402 3.34651 92.391 3.32201 92.5012 3.46875L92.5383 3.54199L93.7209 7.18066C93.9161 7.78096 94.4755 8.18742 95.1067 8.1875H98.9319C99.1378 8.1875 99.2386 8.41806 99.1331 8.56836L99.0745 8.62695L95.9797 10.875C95.5009 11.223 95.2838 11.8232 95.4192 12.3916L95.4504 12.5049L96.6331 16.1426C96.6967 16.3386 96.508 16.5056 96.3323 16.4512L96.259 16.4141L93.1643 14.166C92.6855 13.8182 92.0478 13.7963 91.5491 14.1006L91.4514 14.166L88.3567 16.4141C88.1902 16.535 87.9731 16.4081 87.97 16.2246L87.9827 16.1426L89.1643 12.5049C89.3472 11.942 89.1713 11.3285 88.7278 10.9482L88.635 10.875L85.5403 8.62695C85.3502 8.48868 85.4479 8.18786 85.6829 8.1875H89.5081C90.0999 8.1875 90.6291 7.83032 90.8538 7.29102L90.8948 7.18066L92.0764 3.54199Z" fill="white" stroke="#CDCDCD" stroke-width="1.21457"/>
</svg>
