<svg width="103" height="20" viewBox="0 0 103 20" fill="none" xmlns="http://www.w3.org/2000/svg">
<path d="M8.90801 2.92169C9.16252 2.13839 10.2707 2.13839 10.5252 2.92169L11.7072 6.55963C11.821 6.90994 12.1475 7.14711 12.5158 7.14711H16.341C17.1646 7.14711 17.507 8.20103 16.8407 8.68514L13.7461 10.9335C13.4481 11.15 13.3234 11.5338 13.4372 11.8841L14.6193 15.522C14.8738 16.3053 13.9773 16.9567 13.311 16.4726L10.2163 14.2242C9.91835 14.0077 9.51485 14.0077 9.21686 14.2242L6.12224 16.4726C5.45593 16.9567 4.55941 16.3053 4.81392 15.522L5.99595 11.8841C6.10978 11.5338 5.98509 11.15 5.6871 10.9335L2.59248 8.68514C1.92617 8.20103 2.26861 7.14711 3.09222 7.14711H6.91738C7.28571 7.14711 7.61215 6.90994 7.72597 6.55963L8.90801 2.92169Z" fill="#FF7710"/>
<path d="M29.556 2.92169C29.8105 2.13839 30.9186 2.13839 31.1731 2.92169L32.3552 6.55963C32.469 6.90994 32.7954 7.14711 33.1638 7.14711H36.9889C37.8125 7.14711 38.155 8.20103 37.4887 8.68514L34.394 10.9335C34.0961 11.15 33.9714 11.5338 34.0852 11.8841L35.2672 15.522C35.5217 16.3053 34.6252 16.9567 33.9589 16.4726L30.8643 14.2242C30.5663 14.0077 30.1628 14.0077 29.8648 14.2242L26.7702 16.4726C26.1039 16.9567 25.2074 16.3053 25.4619 15.522L26.6439 11.8841C26.7577 11.5338 26.633 11.15 26.3351 10.9335L23.2404 8.68514C22.5741 8.20103 22.9166 7.14711 23.7402 7.14711H27.5653C27.9337 7.14711 28.2601 6.90994 28.3739 6.55963L29.556 2.92169Z" fill="#FF7710"/>
<path d="M50.2037 2.92169C50.4582 2.13839 51.5663 2.13839 51.8208 2.92169L53.0029 6.55963C53.1167 6.90994 53.4431 7.14711 53.8115 7.14711H57.6366C58.4602 7.14711 58.8027 8.20103 58.1364 8.68514L55.0418 10.9335C54.7438 11.15 54.6191 11.5338 54.7329 11.8841L55.9149 15.522C56.1694 16.3053 55.2729 16.9567 54.6066 16.4726L51.512 14.2242C51.214 14.0077 50.8105 14.0077 50.5125 14.2242L47.4179 16.4726C46.7516 16.9567 45.8551 16.3053 46.1096 15.522L47.2916 11.8841C47.4054 11.5338 47.2807 11.15 46.9828 10.9335L43.8881 8.68514C43.2218 8.20103 43.5643 7.14711 44.3879 7.14711H48.213C48.5814 7.14711 48.9078 6.90994 49.0216 6.55963L50.2037 2.92169Z" fill="#FF7710"/>
<path d="M92.0759 3.10889C92.1397 2.91341 92.3905 2.88891 92.5007 3.03564L92.5378 3.10889L93.7205 6.74756C93.9156 7.34785 94.475 7.75431 95.1062 7.75439H98.9314C99.1373 7.75439 99.2381 7.98496 99.1326 8.13525L99.074 8.19385L95.9792 10.4419C95.5004 10.7899 95.2833 11.3901 95.4187 11.9585L95.45 12.0718L96.6326 15.7095C96.6963 15.9055 96.5075 16.0725 96.3318 16.0181L96.2585 15.981L93.1638 13.7329C92.685 13.385 92.0473 13.3632 91.5486 13.6675L91.4509 13.7329L88.3562 15.981C88.1897 16.1019 87.9726 15.975 87.9695 15.7915L87.9822 15.7095L89.1638 12.0718C89.3467 11.5089 89.1708 10.8954 88.7273 10.5151L88.6345 10.4419L85.5398 8.19385C85.3497 8.05557 85.4474 7.75475 85.6824 7.75439H89.5076C90.0994 7.75439 90.6286 7.39722 90.8533 6.85791L90.8943 6.74756L92.0759 3.10889Z" fill="white" stroke="#CDCDCD" stroke-width="1.21457"/>
<path d="M92.3059 2.33447V14.062C92.1304 14.0619 91.955 14.1159 91.8059 14.2241L88.7112 16.4731C88.0448 16.9571 87.1481 16.3052 87.4026 15.522L88.5842 11.8843C88.698 11.534 88.5735 11.1506 88.2756 10.9341L85.1809 8.68506C84.515 8.20086 84.8574 7.14703 85.6809 7.14697H89.5061C89.8743 7.14697 90.2008 6.91021 90.3147 6.56006L91.4963 2.92139C91.6237 2.5297 91.9651 2.33426 92.3059 2.33447Z" fill="#FF7710"/>
<path d="M70.8509 2.92169C71.1054 2.13839 72.2136 2.13839 72.4681 2.92169L73.6501 6.55963C73.7639 6.90994 74.0904 7.14711 74.4587 7.14711H78.2839C79.1075 7.14711 79.4499 8.20103 78.7836 8.68514L75.689 10.9335C75.391 11.15 75.2663 11.5338 75.3801 11.8841L76.5622 15.522C76.8167 16.3053 75.9201 16.9567 75.2538 16.4726L72.1592 14.2242C71.8612 14.0077 71.4577 14.0077 71.1597 14.2242L68.0651 16.4726C67.3988 16.9567 66.5023 16.3053 66.7568 15.522L67.9388 11.8841C68.0526 11.5338 67.928 11.15 67.63 10.9335L64.5354 8.68514C63.869 8.20103 64.2115 7.14711 65.0351 7.14711H68.8602C69.2286 7.14711 69.555 6.90994 69.6688 6.55963L70.8509 2.92169Z" fill="#FF7710"/>
</svg>
