<svg width="103" height="20" viewBox="0 0 103 20" fill="none" xmlns="http://www.w3.org/2000/svg">
<path d="M8.90801 2.52032C9.16252 1.73702 10.2707 1.73702 10.5252 2.52032L11.7072 6.15827C11.821 6.50857 12.1475 6.74574 12.5158 6.74574H16.341C17.1646 6.74574 17.507 7.79967 16.8407 8.28377L13.7461 10.5321C13.4481 10.7486 13.3234 11.1324 13.4372 11.4827L14.6193 15.1206C14.8738 15.9039 13.9773 16.5553 13.311 16.0712L10.2163 13.8228C9.91835 13.6063 9.51485 13.6063 9.21686 13.8228L6.12224 16.0712C5.45593 16.5553 4.55941 15.9039 4.81392 15.1206L5.99595 11.4827C6.10978 11.1324 5.98509 10.7486 5.6871 10.5321L2.59248 8.28377C1.92617 7.79967 2.26861 6.74574 3.09222 6.74574H6.91738C7.28571 6.74574 7.61215 6.50857 7.72597 6.15827L8.90801 2.52032Z" fill="#FF7710"/>
<path d="M30.1331 2.70752C30.1969 2.51204 30.4476 2.48754 30.5579 2.63428L30.595 2.70752L31.7776 6.34619C31.9728 6.94648 32.5321 7.35294 33.1633 7.35303H36.9885C37.1944 7.35303 37.2953 7.58359 37.1897 7.73389L37.1311 7.79248L34.0364 10.0405C33.5576 10.3885 33.3404 10.9887 33.4758 11.5571L33.5071 11.6704L34.6897 15.3081C34.7534 15.5041 34.5646 15.6711 34.3889 15.6167L34.3157 15.5796L31.2209 13.3315C30.7421 12.9837 30.1044 12.9618 29.6057 13.2661L29.5081 13.3315L26.4133 15.5796C26.2468 15.7006 26.0297 15.5737 26.0266 15.3901L26.0393 15.3081L27.2209 11.6704C27.4038 11.1075 27.2279 10.4941 26.7844 10.1138L26.6917 10.0405L23.5969 7.79248C23.4068 7.6542 23.5045 7.35339 23.7395 7.35303H27.5647C28.1565 7.35303 28.6858 6.99585 28.9104 6.45654L28.9514 6.34619L30.1331 2.70752Z" fill="white" stroke="#CDCDCD" stroke-width="1.21457"/>
<path d="M30.363 1.93311V13.6606C30.1876 13.6605 30.0121 13.7145 29.863 13.8228L26.7683 16.0718C26.102 16.5558 25.2052 15.9039 25.4597 15.1206L26.6413 11.4829C26.7551 11.1326 26.6307 10.7492 26.3327 10.5327L23.238 8.28369C22.5721 7.7995 22.9146 6.74566 23.738 6.74561H27.5632C27.9314 6.74561 28.2579 6.50884 28.3718 6.15869L29.5534 2.52002C29.6808 2.12833 30.0222 1.93289 30.363 1.93311Z" fill="#FF7710"/>
<path d="M50.781 2.70752C50.8448 2.51204 51.0955 2.48754 51.2058 2.63428L51.2429 2.70752L52.4255 6.34619C52.6207 6.94648 53.18 7.35294 53.8113 7.35303H57.6365C57.8424 7.35303 57.9432 7.58359 57.8376 7.73389L57.7791 7.79248L54.6843 10.0405C54.2055 10.3885 53.9884 10.9887 54.1238 11.5571L54.155 11.6704L55.3376 15.3081C55.4013 15.5041 55.2126 15.6711 55.0369 15.6167L54.9636 15.5796L51.8689 13.3315C51.3901 12.9837 50.7524 12.9618 50.2537 13.2661L50.156 13.3315L47.0613 15.5796C46.8948 15.7006 46.6777 15.5737 46.6746 15.3901L46.6873 15.3081L47.8689 11.6704C48.0518 11.1075 47.8759 10.4941 47.4324 10.1138L47.3396 10.0405L44.2449 7.79248C44.0548 7.6542 44.1525 7.35339 44.3875 7.35303H48.2126C48.8045 7.35303 49.3337 6.99585 49.5583 6.45654L49.5994 6.34619L50.781 2.70752Z" fill="white" stroke="#CDCDCD" stroke-width="1.21457"/>
<path d="M71.4287 2.70752C71.4925 2.51204 71.7433 2.48754 71.8535 2.63428L71.8906 2.70752L73.0732 6.34619C73.2684 6.94648 73.8277 7.35294 74.459 7.35303H78.2842C78.4901 7.35303 78.5909 7.58359 78.4854 7.73389L78.4268 7.79248L75.332 10.0405C74.8532 10.3885 74.6361 10.9887 74.7715 11.5571L74.8027 11.6704L75.9854 15.3081C76.049 15.5041 75.8603 15.6711 75.6846 15.6167L75.6113 15.5796L72.5166 13.3315C72.0378 12.9837 71.4001 12.9618 70.9014 13.2661L70.8037 13.3315L67.709 15.5796C67.5425 15.7006 67.3254 15.5737 67.3223 15.3901L67.335 15.3081L68.5166 11.6704C68.6995 11.1075 68.5236 10.4941 68.0801 10.1138L67.9873 10.0405L64.8926 7.79248C64.7025 7.6542 64.8002 7.35339 65.0352 7.35303H68.8604C69.4522 7.35303 69.9814 6.99585 70.2061 6.45654L70.2471 6.34619L71.4287 2.70752Z" fill="white" stroke="#CDCDCD" stroke-width="1.21457"/>
<path d="M92.0764 2.70752C92.1402 2.51204 92.391 2.48754 92.5012 2.63428L92.5383 2.70752L93.7209 6.34619C93.9161 6.94648 94.4755 7.35294 95.1067 7.35303H98.9319C99.1378 7.35303 99.2386 7.58359 99.1331 7.73389L99.0745 7.79248L95.9797 10.0405C95.5009 10.3885 95.2838 10.9887 95.4192 11.5571L95.4504 11.6704L96.6331 15.3081C96.6967 15.5041 96.508 15.6711 96.3323 15.6167L96.259 15.5796L93.1643 13.3315C92.6855 12.9837 92.0478 12.9618 91.5491 13.2661L91.4514 13.3315L88.3567 15.5796C88.1902 15.7006 87.9731 15.5737 87.97 15.3901L87.9827 15.3081L89.1643 11.6704C89.3472 11.1075 89.1713 10.4941 88.7278 10.1138L88.635 10.0405L85.5403 7.79248C85.3502 7.6542 85.4479 7.35339 85.6829 7.35303H89.5081C90.0999 7.35303 90.6291 6.99585 90.8538 6.45654L90.8948 6.34619L92.0764 2.70752Z" fill="white" stroke="#CDCDCD" stroke-width="1.21457"/>
</svg>
