<svg width="20" height="20" viewBox="0 0 20 20" fill="none" xmlns="http://www.w3.org/2000/svg">
<g id="ic_truck_&#8;white_fill">
<path id="Vector" fill-rule="evenodd" clip-rule="evenodd" d="M6.37488 13.25C6.9962 13.25 7.49988 13.8656 7.49988 14.625C7.49988 15.3844 6.9962 16 6.37488 16C5.75356 16 5.24988 15.3844 5.24988 14.625C5.24988 13.8656 5.75356 13.25 6.37488 13.25ZM15.3749 13.25C15.9962 13.25 16.4999 13.8656 16.4999 14.625C16.4999 15.3844 15.9962 16 15.3749 16C14.7536 16 14.2499 15.3844 14.2499 14.625C14.2499 13.8656 14.7536 13.25 15.3749 13.25ZM10.9999 5C11.5522 5 11.9999 5.44772 11.9999 6V11.4167H12.7499V6.91665C12.7499 6.36437 13.1976 5.91665 13.7499 5.91665H15.8285C16.2346 5.91665 16.6003 6.16219 16.7541 6.53802L17.9254 9.40135C17.9746 9.52153 17.9999 9.65014 17.9999 9.77998V13.3792C17.9999 13.8141 17.6473 14.1667 17.2124 14.1667C17.0386 13.1206 16.2819 12.3333 15.3748 12.3333C14.4677 12.3333 13.7111 13.1206 13.5374 14.1667H8.21235C8.03865 13.1206 7.28202 12.3333 6.37488 12.3333C5.46774 12.3333 4.71111 13.1206 4.5374 14.1667H2.99988V6C2.99988 5.44771 3.4476 5 3.99988 5H10.9999ZM15.7499 7.75H14.2499V9.58335H16.4999L15.7499 7.75Z" fill="white"/>
</g>
</svg>
