<svg width="20" height="20" viewBox="0 0 20 20" fill="none" xmlns="http://www.w3.org/2000/svg">
<path d="M7 7H0" stroke="#0A8800" stroke-width="2"/>
<circle cx="15.5" cy="15.5" r="2" fill="#0A8800"/>
<circle cx="6.5" cy="15.5" r="2" fill="#0A8800"/>
<path d="M12.5 2.5C13.0523 2.5 13.5 2.94772 13.5 3.5V3.90039C13.5002 4.23145 13.7685 4.49979 14.0996 4.5H15C17.7614 4.5 20 6.73858 20 9.5V14.5C20 15.0523 19.5523 15.5 19 15.5H18C18 14.1193 16.8807 13 15.5 13C14.1193 13 13 14.1193 13 15.5H9C9 14.1193 7.88071 13 6.5 13C5.11929 13 4 14.1193 4 15.5H3C2.44772 15.5 2 15.0523 2 14.5V11.5H0V9.40039C0 9.17948 0.179477 9 0.400391 9H8V5H2V2.90039C2 2.67948 2.17948 2.5 2.40039 2.5H12.5ZM13.5 6V10H18.5C18.5 7.79086 16.7091 6 14.5 6H13.5Z" fill="#0A8800"/>
</svg>
