<svg xmlns="http://www.w3.org/2000/svg" xmlns:xlink="http://www.w3.org/1999/xlink"><symbol id="ic-apple" viewBox="0 0 24 32"><path fill="#fff" d="M20.045 16.962a6.991 6.991 0 0 1 .873-3.3 6.794 6.794 0 0 1 2.32-2.46 6.92 6.92 0 0 0-2.358-2.15 6.738 6.738 0 0 0-3.049-.842c-2.275-.245-4.48 1.394-5.64 1.394-1.18 0-2.966-1.37-4.888-1.33A7.078 7.078 0 0 0 3.787 9.35a7.299 7.299 0 0 0-2.543 2.71c-2.62 4.644-.666 11.47 1.844 15.225 1.256 1.838 2.723 3.892 4.643 3.819 1.88-.08 2.581-1.227 4.85-1.227 2.246 0 2.905 1.227 4.864 1.18 2.016-.033 3.287-1.846 4.498-3.702A15.361 15.361 0 0 0 24 23.064a6.517 6.517 0 0 1-2.874-2.441 6.748 6.748 0 0 1-1.08-3.66zm-3.7-11.225a6.867 6.867 0 0 0 1.51-4.841 6.666 6.666 0 0 0-4.345 2.302 6.47 6.47 0 0 0-1.228 2.173 6.575 6.575 0 0 0-.322 2.49 5.444 5.444 0 0 0 2.431-.546 5.577 5.577 0 0 0 1.954-1.578z"/></symbol><symbol id="ic-arrow-down-gray-s" viewBox="0 0 16 16"><path fill="#AAA" fill-rule="evenodd" d="M7.142 10.458l-3.96-3.96a.8.8 0 0 1 1.131-1.132l3.395 3.395 3.394-3.395a.8.8 0 0 1 1.131 1.132l-3.96 3.96a.8.8 0 0 1-1.13 0z" clip-rule="evenodd"/></symbol><symbol id="ic-arrow-down-gray" viewBox="0 0 20 20"><path fill="#AAA" fill-rule="evenodd" d="M8.928 13.072l-4.95-4.95a1 1 0 1 1 1.414-1.414l4.243 4.243 4.243-4.243a1 1 0 1 1 1.414 1.414l-4.95 4.95a1 1 0 0 1-1.414 0z" clip-rule="evenodd"/></symbol><symbol id="ic-arrow-down-orange" viewBox="0 0 16 16"><path fill="#FF7710" fill-rule="evenodd" d="M7.143 10.458l-3.96-3.96a.8.8 0 0 1 1.131-1.132L7.71 8.761l3.394-3.395a.8.8 0 0 1 1.131 1.132l-3.96 3.96a.8.8 0 0 1-1.131 0z" clip-rule="evenodd"/></symbol><symbol id="ic-arrow-right-black" viewBox="0 0 14 14"><path fill="#222" fill-rule="evenodd" d="M9.15 7.75l-3.464 3.464a.7.7 0 0 1-.99-.99l2.97-2.97-2.97-2.97a.7.7 0 0 1 .99-.99L9.15 6.76a.7.7 0 0 1 0 .99z" clip-rule="evenodd"/></symbol><symbol id="ic-arrow-down-white" viewBox="0 0 16 16"><path fill="#fff" fill-rule="evenodd" d="M7.143 10.458l-3.96-3.96a.8.8 0 0 1 1.131-1.132L7.71 8.761l3.394-3.395a.8.8 0 0 1 1.131 1.132l-3.96 3.96a.8.8 0 0 1-1.131 0z" clip-rule="evenodd"/></symbol><symbol id="ic-arrow-right-gray" viewBox="0 0 20 20"><path fill="#AAA" fill-rule="evenodd" d="M13.072 11.072l-4.95 4.95a1 1 0 0 1-1.414-1.414l4.243-4.243-4.243-4.243a1 1 0 1 1 1.414-1.414l4.95 4.95a1 1 0 0 1 0 1.414z" clip-rule="evenodd"/></symbol><symbol id="ic-arrow-right-green" viewBox="0 0 20 20"><path fill="#0A8800" fill-rule="evenodd" d="M13.072 11.072l-4.95 4.95a1 1 0 0 1-1.414-1.414l4.243-4.243-4.243-4.243a1 1 0 1 1 1.414-1.414l4.95 4.95a1 1 0 0 1 0 1.414z" clip-rule="evenodd"/></symbol><symbol id="ic-baby-black" fill="none" viewBox="0 0 32 32"><path stroke="currentColor" stroke-linecap="round" stroke-linejoin="round" d="M25.511 14.866c1.316-1.675 1.556-3.95.838-5.864l.957-.957a2.37 2.37 0 1 0-3.35-3.351l-.958.957a6.378 6.378 0 0 0-5.864.838M15.1 6.13a1.197 1.197 0 0 1 1.675 0l9.095 9.095a1.197 1.197 0 0 1 0 1.676l-1.915 1.914a1.197 1.197 0 0 1-1.675 0L13.185 9.72a1.197 1.197 0 0 1 0-1.675L15.1 6.13z"/><path stroke="currentColor" stroke-linecap="round" stroke-linejoin="round" d="M13.544 10.08l-8.736 8.735c-1.077 1.077-1.077 2.992 0 4.069l4.308 4.308c1.077 1.077 2.992 1.077 4.069 0l8.736-8.736M6.364 17.26l2.393 2.394m1.197-5.984l2.393 2.394"/></symbol><symbol id="ic-arrow-right-white" viewBox="0 0 16 16"><path fill="#fff" fill-rule="evenodd" d="M10.801 8.889l-3.495 2.83a.55.55 0 0 1-.692 0l-.086-.07a.55.55 0 0 1 0-.854L9.36 8.5 6.528 6.205a.55.55 0 0 1 0-.855l.086-.07a.55.55 0 0 1 .692 0l3.495 2.831A.503.503 0 0 1 11 8.5a.503.503 0 0 1-.199.389z" clip-rule="evenodd"/></symbol><symbol id="ic-baby-white" fill="none" viewBox="0 0 32 32"><path stroke="#fff" stroke-linecap="round" stroke-linejoin="round" d="M25.511 14.866c1.316-1.675 1.556-3.95.838-5.864l.957-.957a2.37 2.37 0 1 0-3.35-3.351l-.958.957a6.378 6.378 0 0 0-5.864.838M15.1 6.13a1.197 1.197 0 0 1 1.675 0l9.095 9.095a1.197 1.197 0 0 1 0 1.676l-1.915 1.914a1.197 1.197 0 0 1-1.675 0L13.185 9.72a1.197 1.197 0 0 1 0-1.675L15.1 6.13z"/><path stroke="#fff" stroke-linecap="round" stroke-linejoin="round" d="M13.544 10.08l-8.736 8.735c-1.077 1.077-1.077 2.992 0 4.069l4.308 4.308c1.077 1.077 2.992 1.077 4.069 0l8.736-8.736M6.364 17.26l2.393 2.394m1.197-5.984l2.393 2.394"/></symbol><symbol id="ic-book-black" fill="none" viewBox="0 0 32 32"><path stroke="currentColor" stroke-linecap="round" stroke-linejoin="round" d="M16 25.333a12 12 0 0 0-12 0V8a12 12 0 0 1 12 0m0 17.333a12 12 0 0 1 12 0V8a12 12 0 0 0-12 0m0 17.333V8"/></symbol><symbol id="ic-book-white" fill="none" viewBox="0 0 32 32"><path stroke="#fff" stroke-linecap="round" stroke-linejoin="round" d="M16 25.333a12 12 0 0 0-12 0V8a12 12 0 0 1 12 0m0 17.333a12 12 0 0 1 12 0V8a12 12 0 0 0-12 0m0 17.333V8"/></symbol><symbol id="ic-boon-white" viewBox="0 0 20 20"><path fill="#fff" d="M16.34 5.555A2.135 2.135 0 0 0 14.9 5H5.1l-.123.003a2.127 2.127 0 0 0-1.405.637A2.007 2.007 0 0 0 3 7.039v1.235l.005.1c.04.397.31.697.613.843l.098.05c.217.126.395.305.515.52a1.327 1.327 0 0 1-.057 1.39c-.137.206-.33.371-.556.48l-.075.039a1.05 1.05 0 0 0-.543.903v1.235l.003.12c.032.519.266 1.007.656 1.363.39.357.905.556 1.441.556h9.8l.123-.004a2.127 2.127 0 0 0 1.405-.636A2.01 2.01 0 0 0 17 13.834V12.6l-.005-.1c-.04-.397-.31-.697-.613-.843l-.098-.05a1.378 1.378 0 0 1-.515-.52 1.326 1.326 0 0 1 .056-1.391c.138-.205.33-.37.557-.478l.075-.04c.164-.091.3-.223.395-.382A1.03 1.03 0 0 0 17 8.273V7.04l-.003-.12a2.014 2.014 0 0 0-.656-1.364z"/><path fill="#121212" d="M7 8.85h6v.96H7zm0 2.88h4v.96H7z"/></symbol><symbol id="ic-car-black" fill="none" viewBox="0 0 32 32"><path stroke="currentColor" d="M25.333 14.666H6.667m18.666 0A2.667 2.667 0 0 1 28 17.334v4A2.667 2.667 0 0 1 25.333 24H6.667A2.667 2.667 0 0 1 4 21.333v-4a2.667 2.667 0 0 1 2.667-2.666m18.666 0l-.616-6.777a1.333 1.333 0 0 0-1.33-1.223H8.613c-.694 0-1.271.531-1.329 1.223l-.616 6.776m-1.334 8.977v1.69c0 .737.597 1.334 1.334 1.334H8c.736 0 1.333-.597 1.333-1.334V24m13.334 0v1.333c0 .737.597 1.334 1.333 1.334h1.333c.737 0 1.334-.597 1.334-1.334v-1.69M25.333 20a1.333 1.333 0 1 1-2.666 0 1.333 1.333 0 0 1 2.666 0zm-16 0a1.333 1.333 0 1 1-2.666 0 1.333 1.333 0 0 1 2.666 0z"/></symbol><symbol id="ic-car-white" fill="none" viewBox="0 0 32 32"><path stroke="#fff" d="M25.333 14.666H6.667m18.666 0A2.667 2.667 0 0 1 28 17.334v4A2.667 2.667 0 0 1 25.333 24H6.667A2.667 2.667 0 0 1 4 21.333v-4a2.667 2.667 0 0 1 2.667-2.666m18.666 0l-.616-6.777a1.333 1.333 0 0 0-1.33-1.223H8.613c-.694 0-1.271.531-1.329 1.223l-.616 6.776m-1.334 8.977v1.69c0 .737.597 1.334 1.334 1.334H8c.736 0 1.333-.597 1.333-1.334V24m13.334 0v1.333c0 .737.597 1.334 1.333 1.334h1.333c.737 0 1.334-.597 1.334-1.334v-1.69M25.333 20a1.333 1.333 0 1 1-2.666 0 1.333 1.333 0 0 1 2.666 0zm-16 0a1.333 1.333 0 1 1-2.666 0 1.333 1.333 0 0 1 2.666 0z"/></symbol><symbol id="ic-cart-black" fill="none" viewBox="0 0 24 24"><path stroke="currentColor" stroke-linecap="round" stroke-linejoin="round" d="M3.25 6h2.344a1 1 0 0 1 .966.743l2 7.514a1 1 0 0 0 .966.743h8.693a1 1 0 0 0 .97-.758L21 7"/><circle cx="10.5" cy="18.5" r="1" stroke="currentColor" stroke-linecap="round" stroke-linejoin="round"/><circle cx="17.5" cy="18.5" r="1" stroke="currentColor" stroke-linecap="round" stroke-linejoin="round"/><path stroke="currentColor" stroke-linecap="round" stroke-linejoin="round" d="M12 9h4m-2-2v4"/></symbol><symbol id="ic-cart" viewBox="0 0 40 40"><path fill="#121212" d="M14.678 33.958a2.076 2.076 0 1 1 0-4.152 2.076 2.076 0 0 1 0 4.152zM31.14 34a2.076 2.076 0 1 1 0-4.152 2.076 2.076 0 0 1 0 4.152z"/><path stroke="#121212" stroke-linecap="round" stroke-linejoin="round" stroke-width="2" d="M5 6l2.91 1.98a3.676 3.676 0 0 1 1.515 2.22l3.214 14.045c.084.56.363 1.072.788 1.44.424.367.965.565 1.522.559h14.553a2.278 2.278 0 0 0 1.419-.404c.417-.288.73-.708.89-1.195l3.073-9.406a2.391 2.391 0 0 0-1.193-2.867 2.277 2.277 0 0 0-1.117-.237H11.042"/></symbol><symbol id="ic-category" viewBox="0 0 32 32"><path stroke="#000" stroke-linecap="round" stroke-linejoin="round" stroke-width="1.6" d="M27.556 8H4.446m23.11 8H4.446m23.11 8H4.446"/></symbol><symbol id="ic-check-green" viewBox="0 0 16 16"><path stroke="#0A8800" stroke-linecap="round" stroke-linejoin="round" stroke-width="2" d="M2 8.5l4 4L14.5 4"/></symbol><symbol id="ic-chevron-forward-black" viewBox="0 0 32 32" fill="none"><path stroke="#121212" stroke-linecap="round" stroke-linejoin="round" stroke-width="2" d="M12.667 8.666l3.666 3.667L20 16l-7.333 7.333"/></symbol><symbol id="ic-cart-gray7" viewBox="0 0 24 24"><path stroke="#666" stroke-linecap="round" stroke-linejoin="round" d="M3.25 6h2.344a1 1 0 0 1 .966.743l2 7.514a1 1 0 0 0 .966.743h8.693a1 1 0 0 0 .97-.758L21 7"/><circle cx="10.5" cy="18.5" r="1" stroke="#666" stroke-linecap="round" stroke-linejoin="round"/><circle cx="17.5" cy="18.5" r="1" stroke="#666" stroke-linecap="round" stroke-linejoin="round"/><path stroke="#666" stroke-linecap="round" stroke-linejoin="round" d="M12 9h4m-2-2v4"/></symbol><symbol id="ic-coupon-white" viewBox="0 0 20 20"><path fill="#fff" d="M8.758 5.086c.19-.193.45-.303.721-.303l6.118-.005c.577 0 1.037.481 1.007 1.055l-.291 5.59a1 1 0 0 1-.285.648l-6.086 6.21a1.012 1.012 0 0 1-1.425.02l-5.795-5.618a.999.999 0 0 1-.018-1.418l6.054-6.179z"/><path stroke="#121212" stroke-linecap="round" stroke-linejoin="round" stroke-width="1.01" d="M7.053 14.066l5.054-5.027m-.505 5.029a.504.504 0 0 0 0-1.005.504.504 0 0 0-.505.502c0 .278.226.503.505.503zm-4.044-4.024c.28 0 .505-.225.505-.502a.504.504 0 0 0-.505-.503.504.504 0 0 0-.505.503c0 .277.226.502.505.502z"/></symbol><symbol id="ic-day" viewBox="0 0 16 16"><path fill="#0A8800" fill-rule="evenodd" d="M10 4a1 1 0 0 0 1 1h2a1 1 0 0 0 1-1v-.73c.597.345 1 .99 1 1.73v7a2 2 0 0 1-2 2H3a2 2 0 0 1-2-2V5c0-.74.403-1.385 1-1.73V4a1 1 0 0 0 1 1h2a1 1 0 0 0 1-1V3h4v1zm.89 2.545a.6.6 0 0 0-.845.064l-2.58 3.01-1.041-1.043L6.33 8.5a.6.6 0 0 0-.831.831l.077.094 1.5 1.5a.6.6 0 0 0 .88-.033l3-3.5a.6.6 0 0 0-.065-.846z" clip-rule="evenodd"/><path fill="#0A8800" d="M3 1.5a.5.5 0 0 1 .5-.5h1a.5.5 0 0 1 .5.5v2a.5.5 0 0 1-.5.5h-1a.5.5 0 0 1-.5-.5v-2zm8 0a.5.5 0 0 1 .5-.5h1a.5.5 0 0 1 .5.5v2a.5.5 0 0 1-.5.5h-1a.5.5 0 0 1-.5-.5v-2z"/></symbol><symbol id="ic-digital-black" fill="none" viewBox="0 0 32 32"><path stroke="currentColor" stroke-linecap="round" stroke-linejoin="round" d="M9.333 26.667h13.334M12 21.333v5.334m8-5.334v5.334M5.333 5.333h21.334c.736 0 1.333.597 1.333 1.334V20c0 .736-.597 1.334-1.333 1.334H5.333A1.333 1.333 0 0 1 4 20V6.667c0-.737.597-1.333 1.333-1.333z"/></symbol><symbol id="ic-facebook" viewBox="0 0 24 24"><g clip-path="url(#a)"><path fill="#fff" d="M24 12c0-6.627-5.373-12-12-12S0 5.373 0 12c0 5.99 4.388 10.954 10.125 11.854V15.47H7.078V12h3.047V9.356c0-3.007 1.792-4.668 4.533-4.668 1.312 0 2.686.234 2.686.234v2.953H15.83c-1.491 0-1.956.925-1.956 1.875V12h3.328l-.532 3.469h-2.796v8.385C19.612 22.954 24 17.99 24 12z"/></g><defs><clipPath id="a"><path fill="#fff" d="M0 0h24v24H0z"/></clipPath></defs></symbol><symbol id="ic-flash-black" viewBox="0 0 24 24"><path fill="#121212" d="M15.55 3H8.216a.3.3 0 0 0-.284.205l-3.3 9.9a.3.3 0 0 0 .284.395H9.61a.3.3 0 0 1 .29.377l-1.611 6.044c-.08.296.285.506.502.29l10.697-10.7A.3.3 0 0 0 19.276 9H13.95a.3.3 0 0 1-.277-.415l2.154-5.17A.3.3 0 0 0 15.55 3z"/></symbol><symbol id="ic-copyright-gray5" viewBox="0 0 20 20"><path stroke="#8F8F8F" stroke-width=".6" d="M6 10a4 4 0 1 1 8 0 4 4 0 0 1-8 0z"/><path stroke="#8F8F8F" stroke-linecap="round" stroke-width=".6" d="M10.8 11.467a1.8 1.8 0 0 1-.686.133c-.947 0-1.714-.716-1.714-1.6 0-.884.768-1.6 1.714-1.6.244 0 .476.048.686.133"/></symbol><symbol id="ic-footer-protect" viewBox="0 0 25 12"><path fill="url(#a)" d="M0 0h25v12H0z"/><defs><pattern id="a" width="1" height="1" patternContentUnits="objectBoundingBox"><use transform="matrix(.02087 0 0 .04348 -.022 0)" xlink:href="#b"/></pattern></defs></symbol><symbol id="ic-footer-x" viewBox="0 0 24 24"><path fill="#fff" fill-rule="evenodd" d="M9.028 13.052L.456 22.836h3.797l6.561-7.51 5.782 7.511 7.404-.04-9.387-12.414 8.01-9.176-3.736-.042-6.05 6.896-5.178-6.885L0 1.168l9.028 11.884zm10.488 7.532l-1.916-.006L4.435 3.343h2.061l13.02 17.24z" clip-rule="evenodd"/></symbol><symbol id="ic-flash-orange" viewBox="0 0 11 12"><path fill="#FF7710" d="M7.367 0h-4.89a.2.2 0 0 0-.19.137l-2.2 6.6A.2.2 0 0 0 .278 7h3.13a.2.2 0 0 1 .193.252L2.525 11.28c-.052.197.19.337.335.192L9.992 4.34A.2.2 0 0 0 9.851 4H6.3a.2.2 0 0 1-.186-.277L7.551.277A.2.2 0 0 0 7.367 0z"/></symbol><symbol id="ic-flash-line-gray" viewBox="0 0 16 16"><path stroke="#AAA" stroke-linejoin="round" stroke-width="1.2" d="M10.54 1.5H5.147a.221.221 0 0 0-.21.154l-2.426 7.44a.225.225 0 0 0 .21.296h3.45c.146 0 .251.14.214.284L5.2 14.215c-.058.223.21.38.369.218l7.866-8.04c.139-.141.04-.384-.156-.384H9.363a.225.225 0 0 1-.204-.312l1.584-3.885a.225.225 0 0 0-.204-.312z"/></symbol><symbol id="ic-close" viewBox="0 0 32 32"><path stroke="#000" stroke-linecap="round" stroke-linejoin="round" stroke-width="2.13" d="M24 8L8 24M8 8l16 16"/></symbol><symbol id="ic-goods-white" fill="none" viewBox="0 0 32 32"><path stroke="#fff" stroke-linecap="round" stroke-linejoin="round" d="M22.977 20.656l.025-9.478c.002-.23.074-.454.208-.642a1.16 1.16 0 0 1 .541-.417 1.228 1.228 0 0 1 1.306.27l1.837 1.82a1.158 1.158 0 0 1 .354.831l-.096 7.688m-4.164-4.193l4.242.074M8.002 22.32v3.886h13.862M8.002 22.321H4V11.217C4 9.552 5.143 7.61 6.858 6.221 8.573 4.833 12.003 4 12.003 4M8.002 22.321V11.217M12.003 4h6.86m-6.86 0c0 1.84 1.536 3.331 3.43 3.331 1.894 0 3.43-1.491 3.43-3.331m0 0s3.43 1.388 5.145 2.776c1.715 1.388 2.858 3.747 2.858 5.413m-4.821 14.566c0 .308.125.605.349.827.224.222.527.35.844.356l3.547.062c.317.005.62-.113.846-.327.224-.214.351-.506.353-.814L28 20.743l-5.94-.103-.015 6.115z"/></symbol><symbol id="ic-google" viewBox="0 0 20 22"><path fill="url(#a)" d="M0 0h20v22H0z"/><defs><pattern id="a" width="1" height="1" patternContentUnits="objectBoundingBox"><use transform="scale(.0125 .01136)" xlink:href="#b"/></pattern></defs></symbol><symbol id="ic-graph-white" viewBox="0 0 20 20"><path fill="#fff" d="M17 10a7 7 0 1 1-14 0 7 7 0 0 1 14 0z"/><path stroke="#121212" stroke-linecap="round" stroke-linejoin="round" stroke-width=".54" d="M10.846 12.002h2.153V9.716"/><path stroke="#121212" stroke-linecap="round" stroke-linejoin="round" stroke-width=".54" d="M13 12L9.958 8.771a.261.261 0 0 0-.189-.081c-.07 0-.138.03-.188.081l-1.239 1.315a.261.261 0 0 1-.188.081.261.261 0 0 1-.189-.081L6 8"/></symbol><symbol id="ic-goods-black" fill="none" viewBox="0 0 32 32"><path stroke="currentColor" stroke-linecap="round" stroke-linejoin="round" d="M22.977 20.656l.025-9.478c.002-.23.074-.454.208-.642a1.16 1.16 0 0 1 .541-.417 1.228 1.228 0 0 1 1.306.27l1.837 1.82a1.158 1.158 0 0 1 .354.831l-.096 7.688m-4.164-4.193l4.242.074M8.002 22.32v3.886h13.862M8.002 22.321H4V11.217C4 9.552 5.143 7.61 6.858 6.221 8.573 4.833 12.003 4 12.003 4M8.002 22.321V11.217M12.003 4h6.86m-6.86 0c0 1.84 1.536 3.331 3.43 3.331 1.894 0 3.43-1.491 3.43-3.331m0 0s3.43 1.388 5.145 2.776c1.715 1.388 2.858 3.747 2.858 5.413m-4.821 14.566c0 .308.125.605.349.827.224.222.527.35.844.356l3.547.062c.317.005.62-.113.846-.327.224-.214.351-.506.353-.814L28 20.743l-5.94-.103-.015 6.115z"/></symbol><symbol id="ic-instagram" viewBox="0 0 24 24"><g fill="#fff" clip-path="url(#a)"><path d="M12 2.16c3.206 0 3.586.015 4.847.071 1.172.052 1.805.249 2.226.413a3.71 3.71 0 0 1 1.379.895c.421.422.68.82.895 1.378.164.422.36 1.06.412 2.227.057 1.265.07 1.645.07 4.847 0 3.206-.013 3.586-.07 4.846-.051 1.172-.248 1.805-.412 2.227a3.714 3.714 0 0 1-.895 1.378 3.69 3.69 0 0 1-1.379.895c-.421.165-1.059.361-2.226.413-1.266.056-1.645.07-4.847.07-3.206 0-3.586-.014-4.847-.07-1.172-.052-1.805-.248-2.226-.413a3.71 3.71 0 0 1-1.379-.895 3.691 3.691 0 0 1-.895-1.378c-.164-.422-.36-1.06-.412-2.227-.057-1.265-.07-1.645-.07-4.846 0-3.207.013-3.586.07-4.847.051-1.172.248-1.805.412-2.227.216-.558.478-.96.895-1.378.422-.422.82-.68 1.379-.895.421-.164 1.059-.361 2.226-.413 1.261-.056 1.64-.07 4.847-.07zM12 0C8.742 0 8.334.014 7.055.07 5.78.127 4.903.333 4.144.628a5.857 5.857 0 0 0-2.128 1.388A5.88 5.88 0 0 0 .628 4.139C.333 4.903.127 5.775.07 7.05.014 8.334 0 8.742 0 12s.014 3.666.07 4.945c.057 1.275.263 2.152.558 2.911.31.792.717 1.463 1.388 2.128a5.866 5.866 0 0 0 2.123 1.383c.764.296 1.636.502 2.911.558 1.28.056 1.688.07 4.945.07 3.258 0 3.666-.014 4.946-.07 1.275-.056 2.151-.262 2.91-.558a5.866 5.866 0 0 0 2.124-1.383 5.866 5.866 0 0 0 1.383-2.123c.295-.764.501-1.636.558-2.911.056-1.28.07-1.688.07-4.945 0-3.258-.014-3.666-.07-4.946-.057-1.275-.263-2.151-.558-2.91a5.62 5.62 0 0 0-1.374-2.133A5.866 5.866 0 0 0 19.861.633C19.097.338 18.225.13 16.95.075 15.666.015 15.258 0 12 0z"/><path d="M12 5.836A6.166 6.166 0 0 0 5.836 12 6.166 6.166 0 0 0 12 18.164 6.166 6.166 0 0 0 18.164 12 6.166 6.166 0 0 0 12 5.836zm0 10.162A3.999 3.999 0 1 1 12.001 8 3.999 3.999 0 0 1 12 15.998zm7.847-10.406a1.44 1.44 0 1 1-2.879 0 1.44 1.44 0 0 1 2.879 0z"/></g><defs><clipPath id="a"><path fill="#fff" d="M0 0h24v24H0z"/></clipPath></defs></symbol><symbol id="ic-digital-white" fill="none" viewBox="0 0 32 32"><path stroke="#fff" stroke-linecap="round" stroke-linejoin="round" d="M9.333 26.667h13.334M12 21.333v5.334m8-5.334v5.334M5.333 5.333h21.334c.736 0 1.333.597 1.333 1.334V20c0 .736-.597 1.334-1.333 1.334H5.333A1.333 1.333 0 0 1 4 20V6.667c0-.737.597-1.333 1.333-1.333z"/></symbol><symbol id="ic-kitchen-black" fill="none" viewBox="0 0 32 32"><path stroke="currentColor" stroke-linecap="round" stroke-linejoin="round" d="M23.2 15.077c2.651 0 4.8-2.48 4.8-5.539C28 6.48 25.851 4 23.2 4c-2.65 0-4.8 2.48-4.8 5.538 0 3.06 2.15 5.539 4.8 5.539zm0 0V28M9 4v24m5-24v4.615c0 .606-.13 1.207-.38 1.767a4.61 4.61 0 0 1-1.084 1.497 5.05 5.05 0 0 1-1.623 1A5.365 5.365 0 0 1 9 13.232c-1.326 0-2.598-.486-3.536-1.352C4.527 11.013 4 9.839 4 8.615V4"/></symbol><symbol id="ic-kitchen-white" fill="none" viewBox="0 0 32 32"><path stroke="#fff" stroke-linecap="round" stroke-linejoin="round" d="M23.2 15.077c2.651 0 4.8-2.48 4.8-5.539C28 6.48 25.851 4 23.2 4c-2.65 0-4.8 2.48-4.8 5.538 0 3.06 2.15 5.539 4.8 5.539zm0 0V28M9 4v24m5-24v4.615c0 .606-.13 1.207-.38 1.767a4.61 4.61 0 0 1-1.084 1.497 5.05 5.05 0 0 1-1.623 1A5.365 5.365 0 0 1 9 13.232c-1.326 0-2.598-.486-3.536-1.352C4.527 11.013 4 9.839 4 8.615V4"/></symbol><symbol id="ic-language" fill="none" viewBox="0 0 24 24"><path stroke="#121212" stroke-linecap="round" stroke-linejoin="round" stroke-width="1.2" d="M12 22c5.523 0 10-4.477 10-10S17.523 2 12 2 2 6.477 2 12s4.477 10 10 10zM2 12h20"/><path stroke="#121212" stroke-linecap="round" stroke-linejoin="round" stroke-width="1.2" d="M12 2a15.3 15.3 0 0 1 4 10 15.3 15.3 0 0 1-4 10 15.3 15.3 0 0 1-4-10 15.3 15.3 0 0 1 4-10z"/></symbol><symbol id="ic-necessity-white" viewBox="0 0 32 32"><path stroke="#fff" stroke-linecap="round" stroke-linejoin="round" d="M28 14.89a1.843 1.843 0 0 0-.59-1.367L16 3 4.59 13.523A1.846 1.846 0 0 0 4 14.89v10.265A1.846 1.846 0 0 0 5.846 27h20.308A1.847 1.847 0 0 0 28 25.154V14.889z"/><path stroke="#fff" stroke-linecap="round" stroke-linejoin="round" d="M21.571 21H16.43a.429.429 0 0 0-.429.429v5.142c0 .237.192.429.429.429h5.142a.429.429 0 0 0 .429-.429V21.43a.429.429 0 0 0-.429-.429zm-3-6H13.43a.429.429 0 0 0-.429.429v5.142c0 .237.192.429.429.429h5.142a.429.429 0 0 0 .429-.429V15.43a.429.429 0 0 0-.429-.429zm-3 6H10.43a.429.429 0 0 0-.429.429v5.142c0 .237.192.429.429.429h5.142a.429.429 0 0 0 .429-.429V21.43a.429.429 0 0 0-.429-.429z"/></symbol><symbol id="ic-hourglass-white" viewBox="0 0 20 20"><path fill="#fff" d="M6.25 5.2H5V4h10v1.2h-1.25v1.2c0 .969-.51 1.749-1.152 2.386-.44.436-.974.837-1.516 1.214.542.377 1.076.778 1.515 1.214.643.637 1.153 1.417 1.153 2.386v1.2H15V16H5v-1.2h1.25v-1.2c0-.969.51-1.749 1.152-2.386.44-.436.974-.837 1.516-1.214-.542-.377-1.076-.778-1.515-1.214C6.76 8.15 6.25 7.37 6.25 6.4V5.2zm1.25 0v1.2c0 .411.162.801.482 1.2h4.036c.319-.399.482-.789.482-1.2V5.2h-5zm2.5 5.533c-.653.443-1.245.865-1.7 1.315a4.59 4.59 0 0 0-.318.352h4.036c-.1-.123-.206-.24-.319-.352-.454-.45-1.046-.872-1.699-1.315z"/></symbol><symbol id="ic-necessity-black" fill="none" viewBox="0 0 32 32"><path stroke="currentColor" stroke-linecap="round" stroke-linejoin="round" d="M28 14.89a1.845 1.845 0 0 0-.59-1.367l-5.705-5.261L16 3 4.59 13.523A1.846 1.846 0 0 0 4 14.89v10.265A1.846 1.846 0 0 0 5.846 27h20.308A1.846 1.846 0 0 0 28 25.154V14.889z"/><path stroke="currentColor" stroke-linecap="round" stroke-linejoin="round" d="M21.571 21H16.43a.429.429 0 0 0-.429.429v5.142c0 .237.192.429.429.429h5.142a.429.429 0 0 0 .429-.429V21.43a.429.429 0 0 0-.429-.429zm-3-6H13.43a.429.429 0 0 0-.429.429v5.142c0 .237.192.429.429.429h5.142a.429.429 0 0 0 .429-.429V15.43a.429.429 0 0 0-.429-.429zm-3 6H10.43a.429.429 0 0 0-.429.429v5.142c0 .237.192.429.429.429h5.142a.429.429 0 0 0 .429-.429V21.43a.429.429 0 0 0-.429-.429z"/></symbol><symbol id="ic-page-right-gray" viewBox="0 0 32 32"><rect width="31" height="31" x="-.5" y=".5" stroke="#CDCDCD" rx="5.5" transform="matrix(-1 0 0 1 31 0)"/><path fill="#AAA" fill-rule="evenodd" d="M19.706 17.072l-4.95 4.95a1 1 0 0 1-1.414-1.414l4.243-4.243-4.243-4.243a1 1 0 1 1 1.414-1.414l4.95 4.95a1 1 0 0 1 0 1.414z" clip-rule="evenodd"/></symbol><symbol id="ic-recommend-black" fill="none" viewBox="0 0 32 32"><path stroke="currentColor" d="M6.294 18.687l8.916 8.555c.336.323.505.484.707.511a.62.62 0 0 0 .166 0c.202-.027.37-.188.707-.511l8.916-8.555a6.68 6.68 0 0 0 .694-8.86l-.466-.613c-2.49-3.278-7.572-2.736-9.314.993a.684.684 0 0 1-1.24 0c-1.742-3.73-6.824-4.271-9.314-.993l-.466.613a6.68 6.68 0 0 0 .694 8.86z"/></symbol><symbol id="ic-plant-green" viewBox="0 0 20 20"><rect width="20" height="14" y="3" fill="#0A8800" rx="2"/><path fill="#fff" d="M17.516 12.024c-.405 0-.7-.077-.882-.232-.18-.158-.27-.414-.27-.77v-2.15h-.58v-.584h.58v-.936h.759v.936h.796v.585h-.796v1.968c0 .2.04.346.12.434.08.087.212.13.396.13a2.515 2.515 0 0 0 .28-.013v.594a3.724 3.724 0 0 1-.403.038zM11.918 12V8.288h.742v.56h.058c.09-.198.225-.353.403-.464.178-.112.402-.168.673-.168.417 0 .736.12.957.36.222.238.332.58.332 1.021V12h-.745V9.771c0-.31-.065-.54-.195-.69-.128-.153-.328-.229-.602-.229a.89.89 0 0 0-.468.12.784.784 0 0 0-.307.335 1.16 1.16 0 0 0-.106.516V12h-.742zm-2.939.062c-.235 0-.446-.045-.633-.134a1.075 1.075 0 0 1-.437-.386 1.056 1.056 0 0 1-.16-.585v-.006a.99.99 0 0 1 .16-.571c.11-.157.266-.28.471-.37a2.21 2.21 0 0 1 .752-.163l1.37-.082v.523l-1.267.082c-.255.016-.443.07-.564.164a.456.456 0 0 0-.181.386v.007c0 .168.065.302.195.4.13.095.294.143.492.143.184 0 .348-.036.492-.11a.88.88 0 0 0 .342-.3.779.779 0 0 0 .123-.43V9.46c0-.205-.064-.36-.192-.468-.125-.11-.312-.164-.56-.164a1.05 1.05 0 0 0-.51.11.537.537 0 0 0-.26.307l-.006.01h-.714l.003-.024c.03-.205.11-.382.243-.533.134-.152.31-.27.526-.355a2.07 2.07 0 0 1 .749-.127c.312 0 .576.05.793.15.218.099.383.241.495.428.114.185.171.407.171.666V12h-.738v-.526h-.055a1.162 1.162 0 0 1-.273.32c-.11.088-.234.154-.373.2-.139.045-.29.068-.454.068zM6.113 12V6.832h.742V12h-.742zm-4.111-1.685v-.643h1.347c.332 0 .59-.085.772-.256.185-.173.277-.412.277-.718v-.007c0-.31-.092-.55-.277-.72-.182-.172-.44-.257-.772-.257H2.002v-.646H3.54c.324 0 .607.068.851.205.246.134.439.324.578.567.139.242.208.523.208.845v.006a1.7 1.7 0 0 1-.208.851 1.48 1.48 0 0 1-.578.571 1.735 1.735 0 0 1-.851.202H2.002zM1.619 12V7.068h.766V12h-.766z"/></symbol><symbol id="ic-regular-customer" viewBox="0 0 16 16"><path fill="#0A8800" d="M6.39 9.4c-.232.59-.107 1.318.512 1.768l1.106.804-.422 1.3c-.236.726.088 1.387.62 1.728H1v-2.8c0-1.546.994-2.8 2.5-2.8h2.89zm2.56 2.029a.5.5 0 0 1 .092.126l.03.072A.5.5 0 0 0 9 11.489l-.05-.06zM6.363 1C8.372 1 10 2.672 10 4.733c0 2.062-1.628 3.734-3.637 3.734-2.008 0-3.635-1.672-3.635-3.734C2.728 2.672 4.355 1 6.363 1z"/><path fill="#0A8800" d="M10.524 7.464a.5.5 0 0 1 .952 0l.534 1.645a.5.5 0 0 0 .476.346h1.73a.5.5 0 0 1 .294.904l-1.4 1.018a.5.5 0 0 0-.181.559l.534 1.646a.5.5 0 0 1-.769.559l-1.4-1.018a.5.5 0 0 0-.588 0l-1.4 1.018a.5.5 0 0 1-.77-.56l.535-1.645a.5.5 0 0 0-.181-.56l-1.4-1.017a.5.5 0 0 1 .294-.904h1.73a.5.5 0 0 0 .476-.346l.534-1.645z"/></symbol><symbol id="ic-payments" viewBox="0 0 568 63"><path fill="url(#a)" d="M0 0h40v26H0z"/><path fill="url(#b)" d="M48 0h40v26H48z"/><path fill="url(#c)" d="M96 0h40v26H96z"/><path fill="url(#d)" d="M144 0h40v26h-40z"/><path fill="url(#e)" d="M192 0h40v26h-40z"/><path fill="url(#f)" d="M240 0h40v26h-40z"/><path fill="url(#g)" d="M288 0h40v26h-40z"/><path fill="url(#h)" d="M336 0h40v26h-40z"/><path fill="url(#i)" d="M384 0h40v26h-40z"/><path fill="url(#j)" d="M432 0h40v26h-40z"/><path fill="url(#k)" d="M480 0h40v26h-40z"/><path fill="url(#l)" d="M528 0h40v26h-40z"/><path fill="url(#m)" d="M0 37h40v26H0z"/><path fill="url(#n)" d="M48 37h40v26H48z"/><path fill="url(#o)" d="M96 37h40v26H96z"/><path fill="url(#p)" d="M144 37h40v26h-40z"/><path fill="url(#q)" d="M192 37h40v26h-40z"/><path fill="url(#r)" d="M240 37h40v26h-40z"/><path fill="url(#s)" d="M288 37h40v26h-40z"/><path fill="url(#t)" d="M336 37h40v26h-40z"/><path fill="url(#u)" d="M384 37h40v26h-40z"/><path fill="url(#v)" d="M432 37h40v26h-40z"/><path fill="url(#w)" d="M480 37h40v26h-40z"/><defs><pattern id="a" width="1" height="1" patternContentUnits="objectBoundingBox"><use transform="matrix(.00833 0 0 .01282 0 -.013)" xlink:href="#x"/></pattern><pattern id="b" width="1" height="1" patternContentUnits="objectBoundingBox"><use transform="matrix(.00833 0 0 .01282 0 -.013)" xlink:href="#y"/></pattern><pattern id="c" width="1" height="1" patternContentUnits="objectBoundingBox"><use transform="matrix(.00833 0 0 .01282 0 -.013)" xlink:href="#z"/></pattern><pattern id="d" width="1" height="1" patternContentUnits="objectBoundingBox"><use transform="matrix(.00833 0 0 .01282 0 -.013)" xlink:href="#A"/></pattern><pattern id="e" width="1" height="1" patternContentUnits="objectBoundingBox"><use transform="matrix(.00833 0 0 .01282 0 -.013)" xlink:href="#B"/></pattern><pattern id="f" width="1" height="1" patternContentUnits="objectBoundingBox"><use transform="matrix(.00833 0 0 .01282 0 -.013)" xlink:href="#C"/></pattern><pattern id="g" width="1" height="1" patternContentUnits="objectBoundingBox"><use transform="matrix(.00833 0 0 .01282 0 -.013)" xlink:href="#D"/></pattern><pattern id="h" width="1" height="1" patternContentUnits="objectBoundingBox"><use transform="matrix(.00833 0 0 .01282 0 -.013)" xlink:href="#E"/></pattern><pattern id="i" width="1" height="1" patternContentUnits="objectBoundingBox"><use transform="matrix(.00833 0 0 .01282 0 -.013)" xlink:href="#F"/></pattern><pattern id="j" width="1" height="1" patternContentUnits="objectBoundingBox"><use transform="matrix(.00833 0 0 .01282 0 -.013)" xlink:href="#G"/></pattern><pattern id="k" width="1" height="1" patternContentUnits="objectBoundingBox"><use transform="matrix(.00833 0 0 .01282 0 -.013)" xlink:href="#H"/></pattern><pattern id="l" width="1" height="1" patternContentUnits="objectBoundingBox"><use transform="matrix(.00833 0 0 .01282 0 -.013)" xlink:href="#I"/></pattern><pattern id="m" width="1" height="1" patternContentUnits="objectBoundingBox"><use transform="matrix(.00833 0 0 .01282 0 -.013)" xlink:href="#J"/></pattern><pattern id="n" width="1" height="1" patternContentUnits="objectBoundingBox"><use transform="matrix(.00833 0 0 .01282 0 -.013)" xlink:href="#K"/></pattern><pattern id="o" width="1" height="1" patternContentUnits="objectBoundingBox"><use transform="matrix(.00833 0 0 .01282 0 -.013)" xlink:href="#L"/></pattern><pattern id="p" width="1" height="1" patternContentUnits="objectBoundingBox"><use transform="matrix(.00833 0 0 .01282 0 -.013)" xlink:href="#M"/></pattern><pattern id="q" width="1" height="1" patternContentUnits="objectBoundingBox"><use transform="matrix(.00833 0 0 .01282 0 -.013)" xlink:href="#N"/></pattern><pattern id="r" width="1" height="1" patternContentUnits="objectBoundingBox"><use transform="matrix(.00833 0 0 .01282 0 -.013)" xlink:href="#O"/></pattern><pattern id="s" width="1" height="1" patternContentUnits="objectBoundingBox"><use transform="matrix(.00833 0 0 .01282 0 -.013)" xlink:href="#P"/></pattern><pattern id="t" width="1" height="1" patternContentUnits="objectBoundingBox"><use transform="matrix(.00833 0 0 .01282 0 -.013)" xlink:href="#Q"/></pattern><pattern id="u" width="1" height="1" patternContentUnits="objectBoundingBox"><use transform="matrix(.00833 0 0 .01282 0 -.013)" xlink:href="#R"/></pattern><pattern id="v" width="1" height="1" patternContentUnits="objectBoundingBox"><use transform="matrix(.00833 0 0 .01282 0 -.013)" xlink:href="#S"/></pattern><pattern id="w" width="1" height="1" patternContentUnits="objectBoundingBox"><use transform="matrix(.00833 0 0 .01282 0 -.013)" xlink:href="#T"/></pattern></defs></symbol><symbol id="ic-page-left-gray" viewBox="0 0 32 32"><rect width="31" height="31" x="-.5" y=".5" stroke="#CDCDCD" rx="5.5" transform="matrix(-1 0 0 1 31 0)"/><path fill="#AAA" fill-rule="evenodd" d="M12.928 17.072l4.95 4.95a1 1 0 0 0 1.414-1.414l-4.243-4.243 4.243-4.243a1 1 0 1 0-1.414-1.414l-4.95 4.95a1 1 0 0 0 0 1.414z" clip-rule="evenodd"/></symbol><symbol id="ic-return-green" viewBox="0 0 20 20"><path fill="#0A8800" d="M1.25 3.125c0-.345.301-.625.673-.625h16.154c.372 0 .673.28.673.625v2.5c0 .345-.301.625-.673.625H1.923c-.372 0-.673-.28-.673-.625v-2.5zM16.818 7.5c.377 0 .682.28.682.625v8.75c0 .345-.305.625-.682.625H3.182c-.377 0-.682-.28-.682-.625v-8.75c0-.345.305-.625.682-.625h13.636zM6.591 12.29l2.812 2.291v-1.76h3.552v-1.06H9.403V10l-2.812 2.29z"/></symbol><symbol id="ic-review-black" fill="none" viewBox="0 0 16 16"><path stroke="#121212" stroke-linecap="round" stroke-linejoin="round" d="M8.002 8.233a.233.233 0 0 1 0-.466m0 .466a.233.233 0 0 0 0-.466m-2.562.466a.233.233 0 0 1 0-.466m0 .466a.233.233 0 0 0 0-.466m5.123.466a.233.233 0 0 1 0-.466m0 .466a.233.233 0 0 0 0-.466"/><path stroke="#121212" stroke-linecap="round" stroke-linejoin="round" d="M7.998 2a5.997 5.997 0 0 0-5.99 6.286 6 6 0 0 0 .998 3.037L2 14l3.368-.61a5.997 5.997 0 0 0 8.484-6.715A6.001 6.001 0 0 0 7.998 2z"/></symbol><symbol id="ic-search" viewBox="0 0 24 24" fill="none"><path stroke="#FF7710" stroke-linecap="round" stroke-linejoin="round" stroke-width="2" d="M19.859 21l-3.857-3.857m-5.143 1.286a7.714 7.714 0 1 0 0-15.429 7.714 7.714 0 0 0 0 15.429z"/></symbol><symbol id="ic-review-white" viewBox="0 0 16 16"><path stroke="#fff" stroke-linecap="round" stroke-linejoin="round" d="M8.002 8.233a.233.233 0 0 1 0-.466m0 .466a.233.233 0 0 0 0-.466m-2.562.466a.233.233 0 0 1 0-.466m0 .466a.233.233 0 0 0 0-.466m5.123.466a.233.233 0 0 1 0-.466m0 .466a.233.233 0 0 0 0-.466"/><path stroke="#fff" stroke-linecap="round" stroke-linejoin="round" d="M7.998 2a5.997 5.997 0 0 0-5.99 6.286 6 6 0 0 0 .998 3.037L2 14l3.368-.61a5.997 5.997 0 0 0 8.484-6.715A6.001 6.001 0 0 0 7.998 2z"/></symbol><symbol id="ic-review-filter" viewBox="0 0 16 16"><path stroke="#AAA" stroke-linecap="round" stroke-linejoin="round" stroke-width="1.2" d="M14.667 2H1.333l5.334 6.307v4.36L9.333 14V8.307L14.667 2z"/></symbol><symbol id="ic-pinterest" viewBox="0 0 24 24"><path fill="#fff" d="M12 0C5.372 0 0 5.372 0 12c0 5.086 3.164 9.427 7.627 11.175-.104-.952-.202-2.405.042-3.44.22-.938 1.406-5.963 1.406-5.963s-.36-.717-.36-1.781c0-1.67.965-2.916 2.17-2.916 1.021 0 1.518.769 1.518 1.692 0 1.031-.656 2.569-.994 3.994-.28 1.195.6 2.17 1.777 2.17 2.133 0 3.773-2.25 3.773-5.494 0-2.873-2.062-4.884-5.01-4.884-3.413 0-5.42 2.56-5.42 5.208 0 1.031.4 2.137.896 2.737a.359.359 0 0 1 .084.343c-.089.38-.295 1.195-.332 1.359-.052.22-.174.267-.404.16-1.5-.7-2.437-2.888-2.437-4.65 0-3.788 2.752-7.262 7.926-7.262 4.163 0 7.397 2.968 7.397 6.933 0 4.135-2.606 7.463-6.225 7.463-1.214 0-2.357-.633-2.751-1.378 0 0-.6 2.292-.745 2.854-.272 1.04-1.004 2.349-1.491 3.146C9.572 23.812 10.763 24 12 24c6.628 0 12-5.372 12-12S18.628 0 12 0z"/></symbol><symbol id="ic-share" viewBox="0 0 36 36"><circle cx="18" cy="18" r="17.44" fill="#E9E9E9" stroke="#EAEAEA" stroke-width="1.13"/><path stroke="#121212" stroke-linecap="round" stroke-linejoin="round" stroke-width="1.52" d="M13.526 15.895h-.842c-.93 0-1.684.754-1.684 1.684v6.737c0 .93.754 1.684 1.684 1.684h10.527c.93 0 1.684-.754 1.684-1.684v-6.737c0-.93-.754-1.684-1.684-1.684h-1.264m-4.209 3.368v-8.421m-2.948 2.105L17.735 10l2.948 2.947"/></symbol><symbol id="ic-share-white" viewBox="0 0 36 36"><circle cx="18" cy="18" r="17.44" fill="#fff" stroke="#EAEAEA" stroke-width="1.13"/><path stroke="#121212" stroke-linecap="round" stroke-linejoin="round" stroke-width="1.52" d="M13.526 15.895h-.842c-.93 0-1.684.754-1.684 1.684v6.737c0 .93.754 1.684 1.684 1.684h10.527c.93 0 1.684-.754 1.684-1.684v-6.737c0-.93-.754-1.684-1.684-1.684h-1.264m-4.209 3.368v-8.421m-2.948 2.105L17.735 10l2.948 2.947"/></symbol><symbol id="ic-shield-green" viewBox="0 0 20 20"><path fill="#0A8800" d="M8.222 14.09l-3.555-3.272L5.92 9.665l2.302 2.11 2.93-2.695 2.928-2.696 1.253 1.161M10 1L2 4.273v4.909c0 4.54 3.413 8.787 8 9.818 4.587-1.03 8-5.277 8-9.818v-4.91L10 1z"/></symbol><symbol id="ic-security" viewBox="0 0 394 26"><path fill="url(#a)" d="M0 0h42v26H0z"/><path fill="url(#b)" d="M49 0h32v26H49z"/><path fill="url(#c)" d="M88 0h66v26H88z"/><path fill="url(#d)" d="M161 0h68v26h-68z"/><path fill="url(#e)" d="M236 0h42v26h-42z"/><path fill="url(#f)" d="M285 0h42v26h-42z"/><path fill="url(#g)" d="M334 0h60v26h-60z"/><defs><pattern id="a" width="1" height="1" patternContentUnits="objectBoundingBox"><use transform="matrix(.00833 0 0 .01346 0 -.012)" xlink:href="#h"/></pattern><pattern id="b" width="1" height="1" patternContentUnits="objectBoundingBox"><use transform="matrix(.00833 0 0 .01026 0 -.038)" xlink:href="#i"/></pattern><pattern id="c" width="1" height="1" patternContentUnits="objectBoundingBox"><use transform="matrix(.00833 0 0 .02115 0 -.018)" xlink:href="#j"/></pattern><pattern id="d" width="1" height="1" patternContentUnits="objectBoundingBox"><use transform="matrix(.00833 0 0 .0218 0 -.034)" xlink:href="#k"/></pattern><pattern id="e" width="1" height="1" patternContentUnits="objectBoundingBox"><use transform="matrix(.00833 0 0 .01346 0 -.012)" xlink:href="#l"/></pattern><pattern id="f" width="1" height="1" patternContentUnits="objectBoundingBox"><use transform="matrix(.00833 0 0 .01346 0 -.012)" xlink:href="#m"/></pattern><pattern id="g" width="1" height="1" patternContentUnits="objectBoundingBox"><use transform="matrix(.00833 0 0 .01923 0 -.029)" xlink:href="#n"/></pattern></defs></symbol><symbol id="ic-sport-white" fill="none" viewBox="0 0 32 32"><path stroke="#fff" stroke-linejoin="round" d="M22.667 8c-2.89 2.445-6.934 9.067 0 16M9.333 8c2.89 2.445 6.934 9.067 0 16m17.334-8c0 5.891-4.776 10.667-10.667 10.667S5.333 21.89 5.333 16 10.11 5.334 16 5.334 26.667 10.109 26.667 16z"/></symbol><symbol id="ic-shield-white" viewBox="0 0 20 20"><path fill="#fff" d="M9.083 13.333L6.75 11l.822-.822 1.511 1.504 3.845-3.844.822.829M10.25 4L5 6.333v3.5c0 3.238 2.24 6.265 5.25 7 3.01-.735 5.25-3.762 5.25-7v-3.5L10.25 4z"/></symbol><symbol id="ic-sport-black" fill="none" viewBox="0 0 32 32"><path stroke="currentColor" stroke-linejoin="round" d="M22.667 8c-2.89 2.445-6.934 9.067 0 16M9.333 8c2.89 2.445 6.934 9.067 0 16m17.334-8c0 5.891-4.776 10.667-10.667 10.667S5.333 21.89 5.333 16 10.11 5.334 16 5.334 26.667 10.109 26.667 16z"/></symbol><symbol id="ic-star-1-5-sm" viewBox="0 0 103 20"><path fill="#FF7710" d="M8.908 2.52c.255-.783 1.363-.783 1.617 0l1.182 3.638a.85.85 0 0 0 .809.588h3.825c.824 0 1.166 1.054.5 1.538l-3.095 2.248a.85.85 0 0 0-.309.95l1.182 3.639c.255.783-.642 1.434-1.308.95l-3.095-2.248a.85.85 0 0 0-1 0L6.123 16.07c-.666.484-1.563-.167-1.308-.95l1.182-3.638a.85.85 0 0 0-.309-.95l-3.095-2.25c-.666-.483-.323-1.537.5-1.537h3.825a.85.85 0 0 0 .809-.588L8.908 2.52z"/><path fill="#fff" stroke="#CDCDCD" stroke-width="1.21" d="M30.133 2.708a.244.244 0 0 1 .425-.074l.037.074 1.183 3.638c.195.6.754 1.007 1.385 1.007h3.826c.205 0 .306.23.2.38l-.058.06-3.095 2.247a1.458 1.458 0 0 0-.56 1.517l.031.113 1.183 3.638a.244.244 0 0 1-.301.309l-.073-.037-3.095-2.248a1.458 1.458 0 0 0-1.615-.066l-.098.066-3.095 2.248a.244.244 0 0 1-.386-.19l.012-.082 1.182-3.638a1.458 1.458 0 0 0-.437-1.556l-.092-.074-3.095-2.248a.243.243 0 0 1 .142-.439h3.826c.591 0 1.12-.357 1.345-.896l.041-.11 1.182-3.64z"/><path fill="#FF7710" d="M30.363 1.933v11.728a.849.849 0 0 0-.5.162l-3.095 2.249c-.666.484-1.563-.168-1.308-.951l1.181-3.638a.85.85 0 0 0-.308-.95l-3.095-2.25c-.666-.483-.323-1.537.5-1.537h3.825a.85.85 0 0 0 .809-.587l1.181-3.639a.835.835 0 0 1 .81-.587z"/><path fill="#fff" stroke="#CDCDCD" stroke-width="1.21" d="M50.781 2.708a.244.244 0 0 1 .425-.074l.037.074 1.182 3.638a1.46 1.46 0 0 0 1.386 1.007h3.825c.206 0 .307.23.202.38l-.059.06-3.095 2.247a1.458 1.458 0 0 0-.56 1.517l.031.113 1.183 3.638a.244.244 0 0 1-.301.309l-.073-.037-3.095-2.248a1.458 1.458 0 0 0-1.615-.066l-.098.066-3.095 2.248a.244.244 0 0 1-.386-.19l.012-.082 1.182-3.638a1.458 1.458 0 0 0-.437-1.556l-.092-.074-3.095-2.248a.243.243 0 0 1 .143-.439h3.825c.591 0 1.12-.357 1.345-.896l.041-.11 1.182-3.64zm20.648 0a.244.244 0 0 1 .424-.074l.038.074 1.182 3.638c.195.6.755 1.007 1.386 1.007h3.825c.206 0 .307.23.201.38l-.058.06-3.095 2.247a1.458 1.458 0 0 0-.56 1.517l.03.113 1.183 3.638a.244.244 0 0 1-.3.309l-.074-.037-3.094-2.248a1.458 1.458 0 0 0-1.616-.066l-.097.066-3.095 2.248a.244.244 0 0 1-.387-.19l.013-.082 1.182-3.638a1.458 1.458 0 0 0-.437-1.556l-.093-.074-3.094-2.248a.243.243 0 0 1 .142-.439h3.825c.592 0 1.121-.357 1.346-.896l.041-.11 1.182-3.64zm20.647 0a.244.244 0 0 1 .425-.074l.037.074 1.183 3.638c.195.6.754 1.007 1.386 1.007h3.825c.206 0 .307.23.201.38l-.058.06-3.095 2.247a1.458 1.458 0 0 0-.56 1.517l.03.113 1.183 3.638a.244.244 0 0 1-.3.309l-.074-.037-3.095-2.248a1.458 1.458 0 0 0-1.615-.066l-.098.066-3.094 2.248a.244.244 0 0 1-.387-.19l.013-.082 1.181-3.638a1.458 1.458 0 0 0-.436-1.556l-.093-.074-3.095-2.248a.243.243 0 0 1 .143-.439h3.825c.592 0 1.121-.357 1.346-.896l.04-.11 1.182-3.64z"/></symbol><symbol id="ic-star-2-5-sm" viewBox="0 0 103 20"><path fill="#FF7710" d="M8.908 2.654c.255-.783 1.363-.783 1.617 0l1.182 3.638a.85.85 0 0 0 .809.588h3.825c.824 0 1.166 1.053.5 1.538l-3.095 2.248a.85.85 0 0 0-.309.95l1.182 3.638c.255.784-.642 1.435-1.308.951l-3.095-2.248a.85.85 0 0 0-1 0l-3.094 2.248c-.666.484-1.563-.167-1.308-.95l1.182-3.639a.85.85 0 0 0-.309-.95L2.592 8.418c-.666-.485-.323-1.538.5-1.538h3.825a.85.85 0 0 0 .809-.588l1.182-3.638zm20.648 0c.254-.783 1.362-.783 1.617 0l1.182 3.638a.85.85 0 0 0 .809.588h3.825c.823 0 1.166 1.053.5 1.538l-3.095 2.248a.85.85 0 0 0-.31.95l1.183 3.638c.255.784-.642 1.435-1.308.951l-3.095-2.248a.85.85 0 0 0-1 0l-3.094 2.248c-.666.484-1.563-.167-1.308-.95l1.182-3.639a.85.85 0 0 0-.31-.95L23.24 8.418c-.666-.485-.324-1.538.5-1.538h3.825a.85.85 0 0 0 .809-.588l1.182-3.638z"/><path fill="#fff" stroke="#CDCDCD" stroke-width="1.21" d="M50.781 2.841a.244.244 0 0 1 .425-.073l.037.073 1.182 3.639a1.46 1.46 0 0 0 1.386 1.007h3.825c.206 0 .307.23.202.38l-.059.06-3.095 2.247a1.458 1.458 0 0 0-.56 1.517l.031.113 1.183 3.638a.244.244 0 0 1-.301.309l-.073-.038-3.095-2.248a1.458 1.458 0 0 0-1.615-.065l-.098.065-3.095 2.248a.244.244 0 0 1-.386-.19l.012-.081 1.182-3.638a1.458 1.458 0 0 0-.437-1.556l-.092-.074-3.095-2.248a.243.243 0 0 1 .143-.44h3.825c.591 0 1.12-.356 1.345-.896l.041-.11 1.182-3.639z"/><path fill="#FF7710" d="M51.011 2.067v11.727a.849.849 0 0 0-.5.162l-3.095 2.25c-.666.483-1.563-.168-1.308-.952l1.181-3.637a.85.85 0 0 0-.308-.95l-3.095-2.25c-.666-.484-.324-1.538.5-1.538h3.825a.85.85 0 0 0 .809-.587l1.18-3.638a.835.835 0 0 1 .81-.587z"/><path fill="#fff" stroke="#CDCDCD" stroke-width="1.21" d="M71.429 2.841a.244.244 0 0 1 .424-.073l.038.073 1.182 3.639c.195.6.755 1.007 1.386 1.007h3.825c.206 0 .307.23.201.38l-.058.06-3.095 2.247a1.458 1.458 0 0 0-.56 1.517l.03.113 1.183 3.638a.244.244 0 0 1-.3.309l-.074-.038-3.094-2.248A1.458 1.458 0 0 0 70.9 13.4l-.097.065-3.095 2.248a.244.244 0 0 1-.387-.19l.013-.081 1.182-3.638a1.458 1.458 0 0 0-.437-1.556l-.093-.074-3.094-2.248a.243.243 0 0 1 .142-.44h3.825c.592 0 1.121-.356 1.346-.896l.041-.11 1.182-3.639zm20.647 0a.244.244 0 0 1 .425-.073l.037.073 1.183 3.639c.195.6.754 1.007 1.386 1.007h3.825c.206 0 .307.23.201.38l-.058.06-3.095 2.247a1.458 1.458 0 0 0-.56 1.517l.03.113 1.183 3.638a.244.244 0 0 1-.3.309l-.074-.038-3.095-2.248a1.458 1.458 0 0 0-1.615-.065l-.098.065-3.094 2.248a.244.244 0 0 1-.387-.19l.013-.081 1.181-3.638a1.458 1.458 0 0 0-.436-1.556l-.093-.074-3.095-2.248a.243.243 0 0 1 .143-.44h3.825c.592 0 1.121-.356 1.346-.896l.04-.11 1.182-3.639z"/></symbol><symbol id="ic-recommend-white" fill="none" viewBox="0 0 32 32"><path stroke="#fff" d="M6.294 18.687l8.916 8.555c.338.324.507.486.71.512a.624.624 0 0 0 .16 0c.203-.026.372-.188.71-.512l8.916-8.555a6.68 6.68 0 0 0 .694-8.86l-.466-.613c-2.49-3.278-7.572-2.736-9.314.993a.684.684 0 0 1-1.24 0c-1.742-3.73-6.824-4.271-9.314-.993l-.466.613a6.68 6.68 0 0 0 .694 8.86z"/></symbol><symbol id="ic-star-3-5-sm" viewBox="0 0 103 20"><path fill="#FF7710" d="M8.908 2.788c.255-.783 1.363-.783 1.617 0l1.182 3.638a.85.85 0 0 0 .809.587h3.825c.824 0 1.166 1.054.5 1.538L13.746 10.8a.85.85 0 0 0-.309.95l1.182 3.638c.255.784-.642 1.435-1.308.95l-3.095-2.248a.85.85 0 0 0-1 0l-3.093 2.25c-.666.484-1.563-.167-1.308-.95l1.182-3.639a.85.85 0 0 0-.309-.95L2.592 8.55c-.666-.484-.323-1.538.5-1.538h3.825a.85.85 0 0 0 .809-.587l1.182-3.638zm20.648 0c.255-.783 1.363-.783 1.617 0l1.182 3.638a.85.85 0 0 0 .809.587h3.825c.824 0 1.166 1.054.5 1.538L34.394 10.8a.85.85 0 0 0-.309.95l1.182 3.638c.255.784-.642 1.435-1.308.95l-3.095-2.248a.85.85 0 0 0-1 0l-3.094 2.25c-.666.484-1.563-.167-1.308-.95l1.182-3.639a.85.85 0 0 0-.309-.95L23.24 8.55c-.666-.484-.323-1.538.5-1.538h3.825a.85.85 0 0 0 .809-.587l1.182-3.638zm20.648 0c.254-.783 1.362-.783 1.617 0l1.182 3.638a.85.85 0 0 0 .809.587h3.825c.823 0 1.166 1.054.5 1.538L55.041 10.8a.85.85 0 0 0-.31.95l1.183 3.638c.254.784-.642 1.435-1.308.95l-3.095-2.248a.85.85 0 0 0-1 0l-3.094 2.249c-.666.484-1.563-.167-1.308-.95l1.182-3.639a.85.85 0 0 0-.31-.95l-3.092-2.25c-.666-.484-.324-1.538.5-1.538h3.825a.85.85 0 0 0 .809-.587l1.182-3.638z"/><path fill="#fff" stroke="#CDCDCD" stroke-width="1.21" d="M71.429 2.975a.244.244 0 0 1 .424-.073l.038.073 1.182 3.639c.195.6.755 1.007 1.386 1.007h3.825c.206 0 .307.23.201.38l-.058.06-3.095 2.247a1.458 1.458 0 0 0-.56 1.517l.03.113 1.183 3.638a.244.244 0 0 1-.3.308l-.074-.037-3.094-2.248a1.458 1.458 0 0 0-1.616-.065l-.097.065-3.095 2.248a.244.244 0 0 1-.387-.19l.013-.081 1.182-3.638a1.458 1.458 0 0 0-.437-1.557l-.093-.073-3.094-2.248a.243.243 0 0 1 .142-.44h3.825c.592 0 1.121-.357 1.346-.896l.041-.11 1.182-3.639z"/><path fill="#FF7710" d="M71.659 2.2v11.728a.85.85 0 0 0-.5.162l-3.095 2.25c-.666.483-1.563-.169-1.309-.952l1.182-3.637a.85.85 0 0 0-.309-.95l-3.094-2.25c-.666-.484-.324-1.538.5-1.538h3.825a.85.85 0 0 0 .809-.587l1.181-3.638a.835.835 0 0 1 .81-.587z"/><path fill="#fff" stroke="#CDCDCD" stroke-width="1.21" d="M92.076 2.975a.244.244 0 0 1 .425-.073l.037.073 1.183 3.639c.195.6.754 1.007 1.386 1.007h3.825c.206 0 .307.23.201.38l-.058.06-3.095 2.247a1.458 1.458 0 0 0-.56 1.517l.03.113 1.183 3.638a.244.244 0 0 1-.3.308l-.074-.037-3.095-2.248a1.458 1.458 0 0 0-1.615-.065l-.098.065-3.094 2.248a.244.244 0 0 1-.387-.19l.013-.081 1.181-3.638a1.458 1.458 0 0 0-.436-1.557l-.093-.073L85.54 8.06a.243.243 0 0 1 .143-.44h3.825c.592 0 1.121-.357 1.346-.896l.04-.11 1.182-3.639z"/></symbol><symbol id="ic-star-3-sm" viewBox="0 0 103 20"><path fill="#FF7710" d="M8.908 2.788c.255-.783 1.363-.783 1.617 0l1.182 3.638a.85.85 0 0 0 .809.587h3.825c.824 0 1.166 1.054.5 1.538L13.746 10.8a.85.85 0 0 0-.309.95l1.182 3.638c.255.784-.642 1.435-1.308.95l-3.095-2.248a.85.85 0 0 0-1 0l-3.093 2.25c-.666.484-1.563-.167-1.308-.95l1.182-3.639a.85.85 0 0 0-.309-.95L2.592 8.55c-.666-.484-.323-1.538.5-1.538h3.825a.85.85 0 0 0 .809-.587l1.182-3.638zm20.648 0c.255-.783 1.363-.783 1.617 0l1.182 3.638a.85.85 0 0 0 .809.587h3.825c.824 0 1.166 1.054.5 1.538L34.394 10.8a.85.85 0 0 0-.309.95l1.182 3.638c.255.784-.642 1.435-1.308.95l-3.095-2.248a.85.85 0 0 0-1 0l-3.094 2.25c-.666.484-1.563-.167-1.308-.95l1.182-3.639a.85.85 0 0 0-.309-.95L23.24 8.55c-.666-.484-.323-1.538.5-1.538h3.825a.85.85 0 0 0 .809-.587l1.182-3.638zm20.648 0c.254-.783 1.362-.783 1.617 0l1.182 3.638a.85.85 0 0 0 .809.587h3.825c.823 0 1.166 1.054.5 1.538L55.041 10.8a.85.85 0 0 0-.31.95l1.183 3.638c.254.784-.642 1.435-1.308.95l-3.095-2.248a.85.85 0 0 0-1 0l-3.094 2.249c-.666.484-1.563-.167-1.308-.95l1.182-3.639a.85.85 0 0 0-.31-.95l-3.092-2.25c-.666-.484-.324-1.538.5-1.538h3.825a.85.85 0 0 0 .809-.587l1.182-3.638z"/><path fill="#fff" stroke="#CDCDCD" stroke-width="1.21" d="M71.429 2.975a.244.244 0 0 1 .424-.073l.038.073 1.182 3.639c.195.6.755 1.007 1.386 1.007h3.825c.206 0 .307.23.201.38l-.058.06-3.095 2.247a1.458 1.458 0 0 0-.56 1.517l.03.113 1.183 3.638a.244.244 0 0 1-.3.308l-.074-.037-3.094-2.248a1.458 1.458 0 0 0-1.616-.065l-.097.065-3.095 2.248a.244.244 0 0 1-.387-.19l.013-.081 1.182-3.638a1.458 1.458 0 0 0-.437-1.557l-.093-.073-3.094-2.248a.243.243 0 0 1 .142-.44h3.825c.592 0 1.121-.357 1.346-.896l.041-.11 1.182-3.639zm20.647 0a.244.244 0 0 1 .425-.073l.037.073 1.183 3.639c.195.6.754 1.007 1.386 1.007h3.825c.206 0 .307.23.201.38l-.058.06-3.095 2.247a1.458 1.458 0 0 0-.56 1.517l.03.113 1.183 3.638a.244.244 0 0 1-.3.308l-.074-.037-3.095-2.248a1.458 1.458 0 0 0-1.615-.065l-.098.065-3.094 2.248a.244.244 0 0 1-.387-.19l.013-.081 1.181-3.638a1.458 1.458 0 0 0-.436-1.557l-.093-.073L85.54 8.06a.243.243 0 0 1 .143-.44h3.825c.592 0 1.121-.357 1.346-.896l.04-.11 1.182-3.639z"/></symbol><symbol id="ic-star-2-sm" viewBox="0 0 103 21"><path fill="#FF7710" d="M8.908 3.221c.255-.783 1.363-.783 1.617 0l1.182 3.638a.85.85 0 0 0 .809.587h3.825c.824 0 1.166 1.054.5 1.538l-3.095 2.249a.85.85 0 0 0-.309.95l1.182 3.638c.255.784-.642 1.435-1.308.95l-3.095-2.248a.85.85 0 0 0-1 0l-3.094 2.249c-.666.484-1.563-.167-1.308-.95l1.182-3.639a.85.85 0 0 0-.309-.95L2.592 8.984c-.666-.484-.323-1.538.5-1.538h3.825a.85.85 0 0 0 .809-.587l1.182-3.638zm20.648 0c.255-.783 1.363-.783 1.617 0l1.182 3.638a.85.85 0 0 0 .809.587h3.825c.824 0 1.166 1.054.5 1.538l-3.095 2.249a.85.85 0 0 0-.309.95l1.182 3.638c.255.784-.642 1.435-1.308.95l-3.095-2.248a.85.85 0 0 0-1 0l-3.094 2.249c-.666.484-1.563-.167-1.308-.95l1.182-3.639a.85.85 0 0 0-.309-.95L23.24 8.984c-.666-.484-.323-1.538.5-1.538h3.825a.85.85 0 0 0 .809-.587l1.182-3.638z"/><path fill="#fff" stroke="#CDCDCD" stroke-width="1.21" d="M50.781 3.408a.244.244 0 0 1 .425-.073l.037.073 1.182 3.639a1.46 1.46 0 0 0 1.386 1.007h3.825c.206 0 .307.23.202.38l-.059.06-3.095 2.247a1.458 1.458 0 0 0-.56 1.517l.031.113 1.183 3.638a.244.244 0 0 1-.301.308l-.073-.037-3.095-2.248a1.458 1.458 0 0 0-1.615-.065l-.098.065-3.095 2.248a.244.244 0 0 1-.386-.19l.012-.081 1.182-3.638a1.458 1.458 0 0 0-.437-1.556l-.092-.074-3.095-2.248a.243.243 0 0 1 .143-.44h3.825c.591 0 1.12-.356 1.345-.896l.041-.11 1.182-3.639zm20.648 0a.244.244 0 0 1 .424-.073l.038.073 1.182 3.639c.195.6.755 1.007 1.386 1.007h3.825c.206 0 .307.23.201.38l-.058.06-3.095 2.247a1.458 1.458 0 0 0-.56 1.517l.03.113 1.183 3.638a.244.244 0 0 1-.3.308l-.074-.037-3.094-2.248a1.458 1.458 0 0 0-1.616-.065l-.097.065-3.095 2.248a.244.244 0 0 1-.387-.19l.013-.081 1.182-3.638a1.458 1.458 0 0 0-.437-1.556l-.093-.074-3.094-2.248a.243.243 0 0 1 .142-.44h3.825c.592 0 1.121-.356 1.346-.896l.041-.11 1.182-3.639zm20.647 0a.244.244 0 0 1 .425-.073l.037.073 1.183 3.639c.195.6.754 1.007 1.386 1.007h3.825c.206 0 .307.23.201.38l-.058.06-3.095 2.247a1.458 1.458 0 0 0-.56 1.517l.03.113 1.183 3.638a.244.244 0 0 1-.3.308l-.074-.037-3.095-2.248a1.458 1.458 0 0 0-1.615-.065l-.098.065-3.094 2.248a.244.244 0 0 1-.387-.19l.013-.081 1.181-3.638a1.458 1.458 0 0 0-.436-1.556l-.093-.074-3.095-2.248a.243.243 0 0 1 .143-.44h3.825c.592 0 1.121-.356 1.346-.896l.04-.11 1.182-3.639z"/></symbol><symbol id="ic-star-4-5-sm" viewBox="0 0 103 20"><path fill="#FF7710" d="M8.908 2.922c.255-.784 1.363-.784 1.617 0l1.182 3.638a.85.85 0 0 0 .809.587h3.825c.824 0 1.166 1.054.5 1.538l-3.095 2.248a.85.85 0 0 0-.309.951l1.182 3.638c.255.783-.642 1.435-1.308.95l-3.095-2.248a.85.85 0 0 0-1 0l-3.094 2.249c-.666.484-1.563-.168-1.308-.951l1.182-3.638a.85.85 0 0 0-.309-.95l-3.095-2.25c-.666-.484-.323-1.538.5-1.538h3.825a.85.85 0 0 0 .809-.587l1.182-3.638zm20.648 0c.255-.784 1.363-.784 1.617 0l1.182 3.638a.85.85 0 0 0 .809.587h3.825c.824 0 1.166 1.054.5 1.538l-3.095 2.248a.85.85 0 0 0-.309.951l1.182 3.638c.255.783-.642 1.435-1.308.95l-3.095-2.248a.85.85 0 0 0-1 0l-3.094 2.249c-.666.484-1.563-.168-1.308-.951l1.182-3.638a.85.85 0 0 0-.309-.95l-3.095-2.25c-.666-.484-.323-1.538.5-1.538h3.825a.85.85 0 0 0 .809-.587l1.182-3.638zm20.648 0c.254-.784 1.362-.784 1.617 0l1.182 3.638a.85.85 0 0 0 .809.587h3.825c.823 0 1.166 1.054.5 1.538l-3.095 2.248a.85.85 0 0 0-.31.951l1.183 3.638c.254.783-.642 1.435-1.308.95l-3.095-2.248a.85.85 0 0 0-1 0l-3.094 2.249c-.666.484-1.563-.168-1.308-.951l1.182-3.638a.85.85 0 0 0-.31-.95l-3.094-2.249c-.666-.484-.324-1.538.5-1.538h3.825a.85.85 0 0 0 .809-.587l1.182-3.638z"/><path fill="#fff" stroke="#CDCDCD" stroke-width="1.21" d="M92.076 3.109a.244.244 0 0 1 .425-.073l.037.073 1.183 3.639c.195.6.754 1.006 1.385 1.006h3.825c.206 0 .307.231.202.381l-.059.059-3.095 2.248a1.458 1.458 0 0 0-.56 1.517l.031.113 1.183 3.638a.244.244 0 0 1-.301.308l-.073-.037-3.095-2.248a1.457 1.457 0 0 0-1.615-.066l-.098.066-3.095 2.248a.244.244 0 0 1-.386-.19l.012-.082 1.182-3.637a1.458 1.458 0 0 0-.437-1.557l-.093-.073-3.094-2.248a.243.243 0 0 1 .142-.44h3.826c.591 0 1.12-.357 1.345-.896l.041-.11 1.182-3.64z"/><path fill="#FF7710" d="M92.306 2.334v11.728a.85.85 0 0 0-.5.162l-3.095 2.25c-.666.483-1.563-.169-1.308-.952l1.181-3.638a.85.85 0 0 0-.308-.95L85.18 8.685c-.666-.484-.324-1.538.5-1.538h3.825a.85.85 0 0 0 .809-.587l1.181-3.639a.835.835 0 0 1 .81-.587zm-21.456.588c.255-.784 1.364-.784 1.618 0L73.65 6.56a.85.85 0 0 0 .809.587h3.825c.823 0 1.166 1.054.5 1.538l-3.095 2.248a.85.85 0 0 0-.309.951l1.182 3.638c.255.783-.642 1.435-1.308.95l-3.095-2.248a.85.85 0 0 0-1 0l-3.094 2.249c-.666.484-1.563-.168-1.308-.951l1.182-3.638a.85.85 0 0 0-.309-.95l-3.095-2.249c-.666-.484-.323-1.538.5-1.538h3.825a.85.85 0 0 0 .809-.587l1.182-3.638z"/></symbol><symbol id="ic-star-4-sm" viewBox="0 0 103 21"><path fill="#FF7710" d="M8.908 3.355c.255-.784 1.363-.784 1.617 0l1.182 3.638a.85.85 0 0 0 .809.587h3.825c.824 0 1.166 1.054.5 1.538l-3.095 2.249a.85.85 0 0 0-.309.95l1.182 3.638c.255.783-.642 1.435-1.308.95l-3.095-2.248a.85.85 0 0 0-1 0l-3.094 2.249c-.666.484-1.563-.168-1.308-.95l1.182-3.639a.85.85 0 0 0-.309-.95L2.592 9.118c-.666-.484-.323-1.538.5-1.538h3.825a.85.85 0 0 0 .809-.587l1.182-3.638zm20.648 0c.255-.784 1.363-.784 1.617 0l1.182 3.638a.85.85 0 0 0 .809.587h3.825c.824 0 1.166 1.054.5 1.538l-3.095 2.249a.85.85 0 0 0-.309.95l1.182 3.638c.255.783-.642 1.435-1.308.95l-3.095-2.248a.85.85 0 0 0-1 0l-3.094 2.249c-.666.484-1.563-.168-1.308-.95l1.182-3.639a.85.85 0 0 0-.309-.95L23.24 9.118c-.666-.484-.323-1.538.5-1.538h3.825a.85.85 0 0 0 .809-.587l1.182-3.638zm20.648 0c.254-.784 1.362-.784 1.617 0l1.182 3.638a.85.85 0 0 0 .809.587h3.825c.823 0 1.166 1.054.5 1.538l-3.095 2.249a.85.85 0 0 0-.31.95l1.183 3.638c.254.783-.642 1.435-1.308.95l-3.095-2.248a.85.85 0 0 0-1 0l-3.094 2.249c-.666.484-1.563-.168-1.308-.95l1.182-3.639a.85.85 0 0 0-.31-.95l-3.094-2.249c-.666-.484-.324-1.538.5-1.538h3.825a.85.85 0 0 0 .809-.587l1.182-3.638zm20.646 0c.255-.784 1.364-.784 1.618 0l1.182 3.638a.85.85 0 0 0 .809.587h3.825c.823 0 1.166 1.054.5 1.538l-3.095 2.249a.85.85 0 0 0-.309.95l1.182 3.638c.255.783-.642 1.435-1.308.95l-3.095-2.248a.85.85 0 0 0-1 0l-3.094 2.249c-.666.484-1.563-.168-1.308-.95l1.182-3.639a.85.85 0 0 0-.309-.95l-3.095-2.249c-.666-.484-.323-1.538.5-1.538h3.825a.85.85 0 0 0 .809-.587l1.182-3.638z"/><path fill="#fff" stroke="#CDCDCD" stroke-width="1.21" d="M92.076 3.542a.244.244 0 0 1 .425-.073l.037.073 1.183 3.639c.195.6.754 1.006 1.386 1.006h3.825c.206 0 .307.231.201.381l-.058.059-3.095 2.248a1.458 1.458 0 0 0-.56 1.517l.03.113 1.183 3.638a.244.244 0 0 1-.3.308l-.074-.037-3.095-2.248a1.458 1.458 0 0 0-1.615-.065l-.098.065-3.094 2.248a.244.244 0 0 1-.387-.19l.013-.081 1.181-3.638a1.458 1.458 0 0 0-.436-1.557l-.093-.073-3.095-2.248a.243.243 0 0 1 .143-.44h3.825c.592 0 1.121-.357 1.346-.896l.04-.11 1.182-3.639z"/></symbol><symbol id="ic-star-4-5" viewBox="0 0 168 33"><path fill="#FF7710" d="M14.668 4.384c.42-1.29 2.244-1.29 2.663 0l1.947 5.99a1.4 1.4 0 0 0 1.331.967h6.3c1.355 0 1.92 1.736.822 2.533l-5.096 3.702a1.4 1.4 0 0 0-.508 1.566l1.946 5.99c.42 1.29-1.057 2.362-2.154 1.565l-5.096-3.702a1.4 1.4 0 0 0-1.646 0l-5.096 3.702c-1.097.797-2.573-.275-2.154-1.565l1.946-5.99a1.4 1.4 0 0 0-.508-1.566l-5.096-3.702c-1.097-.797-.533-2.533.823-2.533h6.299a1.4 1.4 0 0 0 1.331-.967l1.947-5.99zm33.999 0c.42-1.29 2.244-1.29 2.663 0l1.947 5.99a1.4 1.4 0 0 0 1.331.967h6.3c1.355 0 1.92 1.736.822 2.533l-5.096 3.702a1.4 1.4 0 0 0-.508 1.566l1.946 5.99c.42 1.29-1.057 2.362-2.154 1.565l-5.096-3.702a1.4 1.4 0 0 0-1.646 0l-5.096 3.702c-1.097.797-2.573-.275-2.154-1.565l1.946-5.99a1.4 1.4 0 0 0-.508-1.566l-5.096-3.702c-1.097-.797-.533-2.533.823-2.533h6.299a1.4 1.4 0 0 0 1.331-.967l1.947-5.99zm34.002 0c.42-1.29 2.244-1.29 2.663 0l1.946 5.99a1.4 1.4 0 0 0 1.332.967h6.299c1.356 0 1.92 1.736.822 2.533l-5.095 3.702a1.4 1.4 0 0 0-.509 1.566l1.947 5.99c.419 1.29-1.058 2.362-2.155 1.565l-5.096-3.702a1.4 1.4 0 0 0-1.645 0l-5.096 3.702c-1.097.797-2.574-.275-2.155-1.565l1.947-5.99a1.4 1.4 0 0 0-.509-1.566l-5.096-3.702c-1.097-.797-.533-2.533.823-2.533h6.3a1.4 1.4 0 0 0 1.33-.967l1.947-5.99z"/><path fill="#fff" stroke="#CDCDCD" stroke-width="2" d="M151.619 4.693a.401.401 0 0 1 .735-.066l.027.066 1.946 5.99a2.4 2.4 0 0 0 2.283 1.658h6.298a.4.4 0 0 1 .289.678l-.053.046-5.096 3.702a2.402 2.402 0 0 0-.925 2.497l.053.187 1.946 5.99a.4.4 0 0 1-.555.484l-.06-.037-5.096-3.702a2.4 2.4 0 0 0-2.661-.107l-.161.107-5.096 3.702a.4.4 0 0 1-.631-.379l.016-.068 1.946-5.99a2.4 2.4 0 0 0-.719-2.564l-.153-.12-5.095-3.702a.4.4 0 0 1 .235-.724h6.299a2.4 2.4 0 0 0 2.216-1.476l.066-.182 1.946-5.99z"/><path fill="#FF7710" d="M151.996 22.728c-.288 0-.577.089-.822.267l-5.096 3.703c-1.097.797-2.574-.276-2.155-1.566l1.947-5.99a1.4 1.4 0 0 0-.508-1.565l-5.096-3.704c-1.097-.797-.534-2.531.822-2.532h6.299a1.4 1.4 0 0 0 1.332-.967l1.946-5.99c.21-.645.771-.967 1.331-.968v19.312zM116.668 4.384c.419-1.29 2.244-1.29 2.663 0l1.946 5.99a1.4 1.4 0 0 0 1.332.967h6.299c1.356 0 1.92 1.736.823 2.533l-5.096 3.702a1.4 1.4 0 0 0-.509 1.566l1.947 5.99c.419 1.29-1.058 2.362-2.155 1.565l-5.096-3.702a1.399 1.399 0 0 0-1.645 0l-5.096 3.702c-1.097.797-2.574-.275-2.155-1.565l1.947-5.99a1.4 1.4 0 0 0-.509-1.566l-5.096-3.702c-1.097-.797-.533-2.533.823-2.533h6.299a1.4 1.4 0 0 0 1.332-.967l1.946-5.99z"/></symbol><symbol id="ic-star-1-sm" viewBox="0 0 103 20"><path fill="#FF7710" d="M8.908 2.953c.255-.783 1.363-.783 1.617 0l1.182 3.638a.85.85 0 0 0 .809.588h3.825c.824 0 1.166 1.054.5 1.538l-3.095 2.248a.85.85 0 0 0-.309.95l1.182 3.639c.255.783-.642 1.434-1.308.95l-3.095-2.248a.85.85 0 0 0-1 0l-3.094 2.248c-.666.484-1.563-.167-1.308-.95l1.182-3.638a.85.85 0 0 0-.309-.95l-3.095-2.25c-.666-.483-.323-1.537.5-1.537h3.825a.85.85 0 0 0 .809-.588l1.182-3.638z"/><path fill="#fff" stroke="#CDCDCD" stroke-width="1.21" d="M30.133 3.14a.244.244 0 0 1 .425-.073l.037.074 1.183 3.638c.195.6.754 1.007 1.385 1.007h3.826c.205 0 .306.23.2.381l-.058.059-3.095 2.248a1.458 1.458 0 0 0-.56 1.516l.031.114 1.183 3.637a.244.244 0 0 1-.301.309l-.073-.037-3.095-2.248a1.458 1.458 0 0 0-1.615-.066l-.098.066-3.095 2.248a.244.244 0 0 1-.386-.19l.012-.082 1.182-3.637a1.458 1.458 0 0 0-.437-1.557l-.092-.073-3.095-2.248a.243.243 0 0 1 .142-.44h3.826c.591 0 1.12-.357 1.345-.896l.041-.11 1.182-3.64zm20.648 0a.244.244 0 0 1 .425-.073l.037.074 1.182 3.638a1.46 1.46 0 0 0 1.386 1.007h3.825c.206 0 .307.23.202.381l-.059.059-3.095 2.248a1.458 1.458 0 0 0-.56 1.516l.031.114 1.183 3.637a.244.244 0 0 1-.301.309l-.073-.037-3.095-2.248a1.458 1.458 0 0 0-1.615-.066l-.098.066-3.095 2.248a.244.244 0 0 1-.386-.19l.012-.082 1.182-3.637a1.458 1.458 0 0 0-.437-1.557l-.092-.073-3.095-2.248a.243.243 0 0 1 .143-.44h3.825c.591 0 1.12-.357 1.345-.896l.041-.11 1.182-3.64zm20.648 0a.244.244 0 0 1 .424-.073l.038.074 1.182 3.638c.195.6.755 1.007 1.386 1.007h3.825c.206 0 .307.23.201.381l-.058.059-3.095 2.248a1.458 1.458 0 0 0-.56 1.516l.03.114 1.183 3.637a.244.244 0 0 1-.3.309l-.074-.037-3.094-2.248a1.458 1.458 0 0 0-1.616-.066l-.097.066-3.095 2.248a.244.244 0 0 1-.387-.19l.013-.082 1.182-3.637a1.458 1.458 0 0 0-.437-1.557l-.093-.073-3.094-2.248a.243.243 0 0 1 .142-.44h3.825c.592 0 1.121-.357 1.346-.896l.041-.11 1.182-3.64zm20.647 0a.244.244 0 0 1 .425-.073l.037.074 1.183 3.638c.195.6.754 1.007 1.386 1.007h3.825c.206 0 .307.23.201.381l-.058.059-3.095 2.248a1.458 1.458 0 0 0-.56 1.516l.03.114 1.183 3.637a.244.244 0 0 1-.3.309l-.074-.037-3.095-2.248a1.458 1.458 0 0 0-1.615-.066l-.098.066-3.094 2.248a.244.244 0 0 1-.387-.19l.013-.082 1.181-3.637a1.458 1.458 0 0 0-.436-1.557l-.093-.073-3.095-2.248a.243.243 0 0 1 .143-.44h3.825c.592 0 1.121-.357 1.346-.896l.04-.11 1.182-3.64z"/></symbol><symbol id="ic-temu" viewBox="0 0 52 52" ><path fill="url(#a)" d="M0 0h52v52H0z"/><defs><pattern id="a" width="1" height="1" patternContentUnits="objectBoundingBox"><use transform="scale(.00444)" xlink:href="#b"/></pattern></defs></symbol><symbol id="ic-temu-logo" viewBox="0 0 123 32"><path fill="url(#a)" d="M0 0h123v32H0z"/><defs><pattern id="a" width="1" height="1" patternContentUnits="objectBoundingBox"><use transform="matrix(.00089 0 0 .00341 -.073 -.113)" xlink:href="#b"/></pattern></defs></symbol><symbol id="ic-star-5-sm" viewBox="0 0 103 20"><path fill="#FF7710" d="M8.908 2.489c.255-.784 1.363-.784 1.617 0l1.182 3.638a.85.85 0 0 0 .809.587h3.825c.824 0 1.166 1.054.5 1.538L13.746 10.5a.85.85 0 0 0-.309.951l1.182 3.638c.255.783-.642 1.435-1.308.95l-3.095-2.248a.85.85 0 0 0-1 0L6.123 16.04c-.666.485-1.563-.167-1.308-.95l1.182-3.638a.85.85 0 0 0-.309-.95L2.592 8.251c-.666-.484-.323-1.538.5-1.538h3.825a.85.85 0 0 0 .809-.587l1.182-3.638zm20.648 0c.254-.784 1.362-.784 1.617 0l1.182 3.638a.85.85 0 0 0 .809.587h3.825c.823 0 1.166 1.054.5 1.538L34.393 10.5a.85.85 0 0 0-.31.951l1.183 3.638c.255.783-.642 1.435-1.308.95l-3.095-2.248a.85.85 0 0 0-1 0L26.77 16.04c-.666.485-1.563-.167-1.308-.95l1.182-3.638a.85.85 0 0 0-.31-.95L23.24 8.251c-.666-.484-.324-1.538.5-1.538h3.825a.85.85 0 0 0 .809-.587l1.182-3.638zm20.647 0c.255-.784 1.363-.784 1.618 0l1.182 3.638a.85.85 0 0 0 .808.587h3.825c.824 0 1.166 1.054.5 1.538L55.041 10.5a.85.85 0 0 0-.308.951l1.182 3.638c.254.783-.642 1.435-1.309.95l-3.094-2.248a.85.85 0 0 0-1 0l-3.094 2.248c-.667.485-1.563-.167-1.309-.95l1.182-3.638a.85.85 0 0 0-.308-.95l-3.095-2.249c-.666-.484-.324-1.538.5-1.538h3.825a.85.85 0 0 0 .808-.587l1.182-3.638zm20.648 0c.255-.784 1.363-.784 1.618 0l1.182 3.638a.85.85 0 0 0 .808.587h3.825c.824 0 1.166 1.054.5 1.538L75.69 10.5a.85.85 0 0 0-.308.951l1.182 3.638c.254.783-.642 1.435-1.309.95l-3.094-2.248a.85.85 0 0 0-1 0l-3.094 2.248c-.667.485-1.563-.167-1.309-.95l1.182-3.638a.85.85 0 0 0-.308-.95l-3.095-2.249c-.666-.484-.324-1.538.5-1.538h3.825a.85.85 0 0 0 .808-.587l1.182-3.638zm20.649 0c.254-.784 1.362-.784 1.616 0l1.182 3.638a.85.85 0 0 0 .809.587h3.825c.824 0 1.166 1.054.5 1.538L96.337 10.5a.85.85 0 0 0-.309.951l1.182 3.638c.255.783-.642 1.435-1.308.95l-3.095-2.248a.85.85 0 0 0-1 0l-3.094 2.248c-.666.485-1.563-.167-1.308-.95l1.182-3.638a.85.85 0 0 0-.309-.95l-3.095-2.249c-.666-.484-.323-1.538.5-1.538h3.825a.85.85 0 0 0 .809-.587l1.182-3.638z"/></symbol><symbol id="ic-truck-green" viewBox="0 0 20 20"><path stroke="#0A8800" stroke-width="2" d="M7 7H0"/><circle cx="15.5" cy="15.5" r="2" fill="#0A8800"/><circle cx="6.5" cy="15.5" r="2" fill="#0A8800"/><path fill="#0A8800" d="M12.5 2.5a1 1 0 0 1 1 1v.4a.6.6 0 0 0 .6.6h.9a5 5 0 0 1 5 5v5a1 1 0 0 1-1 1h-1a2.5 2.5 0 0 0-5 0H9a2.5 2.5 0 0 0-5 0H3a1 1 0 0 1-1-1v-3H0V9.4c0-.22.18-.4.4-.4H8V5H2V2.9c0-.22.18-.4.4-.4h10.1zm1 3.5v4h5a4 4 0 0 0-4-4h-1z"/></symbol><symbol id="ic-truck-white-fill" viewBox="0 0 20 20"><path fill="#fff" fill-rule="evenodd" d="M6.375 13.25c.621 0 1.125.616 1.125 1.375 0 .76-.504 1.375-1.125 1.375s-1.125-.616-1.125-1.375c0-.76.504-1.375 1.125-1.375zm9 0c.621 0 1.125.616 1.125 1.375 0 .76-.504 1.375-1.125 1.375s-1.125-.616-1.125-1.375c0-.76.504-1.375 1.125-1.375zM11 5a1 1 0 0 1 1 1v5.417h.75v-4.5a1 1 0 0 1 1-1h2.079a1 1 0 0 1 .925.621l1.171 2.863A1 1 0 0 1 18 9.78v3.6a.788.788 0 0 1-.788.787c-.173-1.046-.93-1.834-1.837-1.834-.907 0-1.664.788-1.838 1.834H8.212c-.173-1.046-.93-1.834-1.837-1.834-.907 0-1.664.788-1.838 1.834H3V6a1 1 0 0 1 1-1h7zm4.75 2.75h-1.5v1.833h2.25l-.75-1.833z" clip-rule="evenodd"/></symbol><symbol id="ic-user" viewBox="0 0 40 40" fill="none"><path stroke="#000" stroke-linecap="round" stroke-linejoin="round" stroke-width="2" d="M33.333 35v-3.333A6.667 6.667 0 0 0 26.666 25H13.333a6.667 6.667 0 0 0-6.667 6.667V35M20 18.333A6.667 6.667 0 1 0 20 5a6.667 6.667 0 0 0 0 13.333z"/></symbol><symbol id="ic-star-4" viewBox="0 0 168 33"><path fill="#FF7710" d="M14.668 4.384c.42-1.29 2.244-1.29 2.663 0l1.947 5.99a1.4 1.4 0 0 0 1.331.967h6.3c1.355 0 1.92 1.736.822 2.533l-5.096 3.702a1.4 1.4 0 0 0-.508 1.566l1.946 5.99c.42 1.29-1.057 2.362-2.154 1.565l-5.096-3.702a1.4 1.4 0 0 0-1.646 0l-5.096 3.702c-1.097.797-2.573-.275-2.154-1.565l1.946-5.99a1.4 1.4 0 0 0-.508-1.566l-5.096-3.702c-1.097-.797-.533-2.533.823-2.533h6.299a1.4 1.4 0 0 0 1.331-.967l1.947-5.99zm33.999 0c.42-1.29 2.244-1.29 2.663 0l1.947 5.99a1.4 1.4 0 0 0 1.331.967h6.3c1.355 0 1.92 1.736.822 2.533l-5.096 3.702a1.4 1.4 0 0 0-.508 1.566l1.946 5.99c.42 1.29-1.057 2.362-2.154 1.565l-5.096-3.702a1.4 1.4 0 0 0-1.646 0l-5.096 3.702c-1.097.797-2.573-.275-2.154-1.565l1.946-5.99a1.4 1.4 0 0 0-.508-1.566l-5.096-3.702c-1.097-.797-.533-2.533.823-2.533h6.299a1.4 1.4 0 0 0 1.331-.967l1.947-5.99zm34.002 0c.42-1.29 2.244-1.29 2.663 0l1.946 5.99a1.4 1.4 0 0 0 1.332.967h6.299c1.356 0 1.92 1.736.822 2.533l-5.095 3.702a1.4 1.4 0 0 0-.509 1.566l1.947 5.99c.419 1.29-1.058 2.362-2.155 1.565l-5.096-3.702a1.4 1.4 0 0 0-1.645 0l-5.096 3.702c-1.097.797-2.574-.275-2.155-1.565l1.947-5.99a1.4 1.4 0 0 0-.509-1.566l-5.096-3.702c-1.097-.797-.533-2.533.823-2.533h6.3a1.4 1.4 0 0 0 1.33-.967l1.947-5.99zm33.999 0c.419-1.29 2.244-1.29 2.663 0l1.946 5.99a1.4 1.4 0 0 0 1.332.967h6.299c1.356 0 1.92 1.736.823 2.533l-5.096 3.702a1.4 1.4 0 0 0-.509 1.566l1.947 5.99c.419 1.29-1.058 2.362-2.155 1.565l-5.096-3.702a1.399 1.399 0 0 0-1.645 0l-5.096 3.702c-1.097.797-2.574-.275-2.155-1.565l1.947-5.99a1.4 1.4 0 0 0-.509-1.566l-5.096-3.702c-1.097-.797-.533-2.533.823-2.533h6.299a1.4 1.4 0 0 0 1.332-.967l1.946-5.99z"/><path fill="#fff" stroke="#CDCDCD" stroke-width="2" d="M151.62 4.693a.4.4 0 0 1 .734-.066l.027.066 1.947 5.99a2.399 2.399 0 0 0 2.282 1.658h6.299a.4.4 0 0 1 .288.678l-.053.046-5.096 3.702a2.401 2.401 0 0 0-.924 2.497l.052.187 1.947 5.99a.401.401 0 0 1-.556.484l-.06-.037-5.095-3.702a2.402 2.402 0 0 0-2.662-.107l-.161.107-5.095 3.702a.4.4 0 0 1-.632-.379l.016-.068 1.947-5.99a2.4 2.4 0 0 0-.72-2.564l-.152-.12-5.096-3.702a.4.4 0 0 1 .235-.724h6.299a2.4 2.4 0 0 0 2.216-1.476l.066-.182 1.947-5.99z"/></symbol><symbol id="ic-youtube" viewBox="0 0 24 18"><path fill="#fff" d="M23.76 4.2s-.233-1.655-.955-2.381C21.89.862 20.869.858 20.4.8 17.044.558 12.005.558 12.005.558h-.01S6.956.558 3.6.8c-.469.058-1.49.062-2.405 1.02C.473 2.546.244 4.2.244 4.2S0 6.146 0 8.087v1.818c0 1.941.24 3.886.24 3.886s.233 1.655.95 2.382c.915.956 2.115.923 2.65 1.026 1.92.183 8.16.24 8.16.24s5.044-.01 8.4-.25c.469-.055 1.49-.06 2.405-1.016.722-.727.956-2.382.956-2.382S24 11.85 24 9.904V8.086c0-1.94-.24-3.886-.24-3.886zM9.52 12.112V5.367l6.483 3.384-6.483 3.361z"/></symbol><symbol id="ic-tiktok" viewBox="0 0 24 24"><path fill="#fff" d="M17.073 0h-4.045v16.348c0 1.948-1.556 3.548-3.492 3.548s-3.491-1.6-3.491-3.548c0-1.913 1.52-3.478 3.388-3.548V8.696C5.319 8.766 2 12.139 2 16.348 2 20.59 5.388 24 9.57 24c4.184 0 7.572-3.444 7.572-7.652V7.965A9.366 9.366 0 0 0 22.5 9.774V5.67c-3.042-.105-5.427-2.61-5.427-5.67z"/></symbol><symbol id="ic-star-5" viewBox="0 0 168 33"><path fill="#FF7710" d="M14.668 4.384c.42-1.29 2.244-1.29 2.663 0l1.947 5.99a1.4 1.4 0 0 0 1.331.967h6.3c1.355 0 1.92 1.736.822 2.533l-5.096 3.702a1.4 1.4 0 0 0-.508 1.566l1.946 5.99c.42 1.29-1.057 2.362-2.154 1.565l-5.096-3.702a1.4 1.4 0 0 0-1.646 0l-5.096 3.702c-1.097.797-2.573-.275-2.154-1.565l1.946-5.99a1.4 1.4 0 0 0-.508-1.566l-5.096-3.702c-1.097-.797-.533-2.533.823-2.533h6.299a1.4 1.4 0 0 0 1.331-.967l1.947-5.99zm34.001 0c.419-1.29 2.243-1.29 2.663 0l1.946 5.99a1.4 1.4 0 0 0 1.331.967h6.3c1.355 0 1.92 1.736.822 2.533l-5.096 3.702a1.4 1.4 0 0 0-.508 1.566l1.946 5.99c.42 1.29-1.057 2.362-2.154 1.565l-5.096-3.702a1.4 1.4 0 0 0-1.646 0l-5.096 3.702c-1.097.797-2.573-.275-2.154-1.565l1.946-5.99a1.4 1.4 0 0 0-.508-1.566l-5.096-3.702c-1.097-.797-.533-2.533.823-2.533h6.299a1.4 1.4 0 0 0 1.331-.967l1.947-5.99zm33.999 0c.42-1.29 2.244-1.29 2.663 0l1.947 5.99a1.4 1.4 0 0 0 1.331.967h6.3c1.355 0 1.92 1.736.822 2.533l-5.096 3.702a1.4 1.4 0 0 0-.508 1.566l1.946 5.99c.42 1.29-1.057 2.362-2.154 1.565l-5.096-3.702a1.4 1.4 0 0 0-1.646 0l-5.096 3.702c-1.097.797-2.573-.275-2.154-1.565l1.946-5.99a1.4 1.4 0 0 0-.508-1.566l-5.096-3.702c-1.097-.797-.533-2.533.823-2.533h6.299a1.4 1.4 0 0 0 1.331-.967l1.947-5.99zm34 0c.419-1.29 2.244-1.29 2.663 0l1.946 5.99a1.4 1.4 0 0 0 1.332.967h6.299c1.356 0 1.92 1.736.823 2.533l-5.096 3.702a1.4 1.4 0 0 0-.509 1.566l1.947 5.99c.419 1.29-1.058 2.362-2.155 1.565l-5.096-3.702a1.399 1.399 0 0 0-1.645 0l-5.096 3.702c-1.097.797-2.574-.275-2.155-1.565l1.947-5.99a1.4 1.4 0 0 0-.509-1.566l-5.096-3.702c-1.097-.797-.533-2.533.823-2.533h6.299a1.4 1.4 0 0 0 1.332-.967l1.946-5.99zm34.001 0c.419-1.29 2.244-1.29 2.663 0l1.946 5.99a1.4 1.4 0 0 0 1.332.967h6.299c1.356 0 1.92 1.736.823 2.533l-5.096 3.702a1.4 1.4 0 0 0-.509 1.566l1.947 5.99c.419 1.29-1.058 2.362-2.155 1.565l-5.096-3.702a1.399 1.399 0 0 0-1.645 0l-5.096 3.702c-1.097.797-2.574-.275-2.155-1.565l1.947-5.99a1.4 1.4 0 0 0-.509-1.566l-5.096-3.702c-1.097-.797-.533-2.533.823-2.533h6.299a1.4 1.4 0 0 0 1.332-.967l1.946-5.99z"/></symbol></svg>